0
SECTION
2
HEADER
9
$ACADVER
1
AC1021
9
$INSUNITS
70
4
0
ENDSEC
0
SECTION
2
ENTITIES
0
LINE
8
OBJECT
10
0
20
0
30
0
11
0
21
-42.9
31
0
0
LINE
8
OBJECT
10
0
20
-42.9
30
0
11
-4
21
-46.15
31
0
0
LINE
8
OBJECT
10
-4
20
-46.15
30
0
11
-34
21
-46.15
31
0
0
LINE
8
OBJECT
10
-34
20
-46.15
30
0
11
-39
21
-39
31
0
0
LINE
8
OBJECT
10
-39
20
-39
30
0
11
-128.8
21
-39
31
0
0
LINE
8
OBJECT
10
-128.8
20
-39
30
0
11
-132.8
21
-32.5
31
0
0
LINE
8
OBJECT
10
-132.8
20
-32.5
30
0
11
-193.2
21
-32.5
31
0
0
LINE
8
OBJECT
10
-193.2
20
-32.5
30
0
11
-196.2
21
-25.35
31
0
0
LINE
8
OBJECT
10
-196.2
20
-25.35
30
0
11
-227
21
-25.35
31
0
0
LINE
8
OBJECT
10
-227
20
-25.35
30
0
11
-230
21
-22.425
31
0
0
LINE
8
OBJECT
10
-230
20
-22.425
30
0
11
-230
21
0
31
0
0
LINE
8
OBJECT
10
0
20
0
30
0
11
0
21
42.9
31
0
0
LINE
8
OBJECT
10
0
20
42.9
30
0
11
-4
21
46.15
31
0
0
LINE
8
OBJECT
10
-4
20
46.15
30
0
11
-34
21
46.15
31
0
0
LINE
8
OBJECT
10
-34
20
46.15
30
0
11
-39
21
39
31
0
0
LINE
8
OBJECT
10
-39
20
39
30
0
11
-128.8
21
39
31
0
0
LINE
8
OBJECT
10
-128.8
20
39
30
0
11
-132.8
21
32.5
31
0
0
LINE
8
OBJECT
10
-132.8
20
32.5
30
0
11
-193.2
21
32.5
31
0
0
LINE
8
OBJECT
10
-193.2
20
32.5
30
0
11
-196.2
21
25.35
31
0
0
LINE
8
OBJECT
10
-196.2
20
25.35
30
0
11
-227
21
25.35
31
0
0
LINE
8
OBJECT
10
-227
20
25.35
30
0
11
-230
21
22.425
31
0
0
LINE
8
OBJECT
10
-230
20
22.425
30
0
11
-230
21
0
31
0
0
LINE
8
OBJECT
10
0
20
0
30
0
11
0
21
-42.9
31
0
0
LINE
8
OBJECT
10
0
20
-42.9
30
0
11
4
21
-46.15
31
0
0
LINE
8
OBJECT
10
4
20
-46.15
30
0
11
34
21
-46.15
31
0
0
LINE
8
OBJECT
10
34
20
-46.15
30
0
11
39
21
-39
31
0
0
LINE
8
OBJECT
10
39
20
-39
30
0
11
145.6
21
-39
31
0
0
LINE
8
OBJECT
10
145.6
20
-39
30
0
11
149.6
21
-32.5
31
0
0
LINE
8
OBJECT
10
149.6
20
-32.5
30
0
11
218.4
21
-32.5
31
0
0
LINE
8
OBJECT
10
218.4
20
-32.5
30
0
11
221.4
21
-25.35
31
0
0
LINE
8
OBJECT
10
221.4
20
-25.35
30
0
11
257
21
-25.35
31
0
0
LINE
8
OBJECT
10
257
20
-25.35
30
0
11
260
21
-22.425
31
0
0
LINE
8
OBJECT
10
260
20
-22.425
30
0
11
260
21
0
31
0
0
LINE
8
OBJECT
10
0
20
0
30
0
11
0
21
42.9
31
0
0
LINE
8
OBJECT
10
0
20
42.9
30
0
11
4
21
46.15
31
0
0
LINE
8
OBJECT
10
4
20
46.15
30
0
11
34
21
46.15
31
0
0
LINE
8
OBJECT
10
34
20
46.15
30
0
11
39
21
39
31
0
0
LINE
8
OBJECT
10
39
20
39
30
0
11
145.6
21
39
31
0
0
LINE
8
OBJECT
10
145.6
20
39
30
0
11
149.6
21
32.5
31
0
0
LINE
8
OBJECT
10
149.6
20
32.5
30
0
11
218.4
21
32.5
31
0
0
LINE
8
OBJECT
10
218.4
20
32.5
30
0
11
221.4
21
25.35
31
0
0
LINE
8
OBJECT
10
221.4
20
25.35
30
0
11
257
21
25.35
31
0
0
LINE
8
OBJECT
10
257
20
25.35
30
0
11
260
21
22.425
31
0
0
LINE
8
OBJECT
10
260
20
22.425
30
0
11
260
21
0
31
0
0
LINE
8
DIM
10
-230
20
-170
30
0
11
-230
21
-115
31
0
0
LINE
8
DIM
10
0
20
-170
30
0
11
0
21
-115
31
0
0
LINE
8
DIM
10
-230
20
-140
30
0
11
0
21
-140
31
0
0
LINE
8
DIM
10
-230
20
-140
30
0
11
-218
21
-146
31
0
0
LINE
8
DIM
10
-230
20
-140
30
0
11
-218
21
-134
31
0
0
LINE
8
DIM
10
0
20
-140
30
0
11
-12
21
-146
31
0
0
LINE
8
DIM
10
0
20
-140
30
0
11
-12
21
-134
31
0
0
TEXT
8
DIM
10
-115
20
-126
30
0
40
22
1
좌측 돌출 230
0
LINE
8
DIM
10
0
20
-170
30
0
11
0
21
-115
31
0
0
LINE
8
DIM
10
260
20
-170
30
0
11
260
21
-115
31
0
0
LINE
8
DIM
10
0
20
-140
30
0
11
260
21
-140
31
0
0
LINE
8
DIM
10
0
20
-140
30
0
11
12
21
-146
31
0
0
LINE
8
DIM
10
0
20
-140
30
0
11
12
21
-134
31
0
0
LINE
8
DIM
10
260
20
-140
30
0
11
248
21
-146
31
0
0
LINE
8
DIM
10
260
20
-140
30
0
11
248
21
-134
31
0
0
TEXT
8
DIM
10
130
20
-126
30
0
40
22
1
우측 돌출 260
0
TEXT
8
TEXT
10
0
20
90
30
0
40
22
1
좌·우 축 프로파일 · 접합부 규격 미확정
0
CIRCLE
8
OBJECT
10
0
20
420
30
0
40
130
0
CIRCLE
8
OBJECT
10
0
20
420
30
0
40
111
0
CIRCLE
8
OBJECT
10
0
20
420
30
0
40
95
0
TEXT
8
TEXT
10
0
20
600
30
0
40
22
1
외경 Ø260 / 심관 외경 Ø222
0
TEXT
8
TEXT
10
0
20
640
30
0
40
22
1
표면층 19 / 심관 두께 16 (가정)
0
ENDSEC
0
EOF
