0
SECTION
2
HEADER
9
$ACADVER
1
AC1021
9
$INSUNITS
70
4
0
ENDSEC
0
SECTION
2
ENTITIES
0
LINE
8
OBJECT
10
-350
20
-130
30
0
11
350
21
-130
31
0
0
LINE
8
OBJECT
10
350
20
-130
30
0
11
350
21
130
31
0
0
LINE
8
OBJECT
10
350
20
130
30
0
11
-350
21
130
31
0
0
LINE
8
OBJECT
10
-350
20
130
30
0
11
-350
21
-130
31
0
0
LINE
8
OBJECT
10
-350
20
0
30
0
11
-350
21
-42.9
31
0
0
LINE
8
OBJECT
10
-350
20
-42.9
30
0
11
-354
21
-46.15
31
0
0
LINE
8
OBJECT
10
-354
20
-46.15
30
0
11
-384
21
-46.15
31
0
0
LINE
8
OBJECT
10
-384
20
-46.15
30
0
11
-389
21
-39
31
0
0
LINE
8
OBJECT
10
-389
20
-39
30
0
11
-478.8
21
-39
31
0
0
LINE
8
OBJECT
10
-478.8
20
-39
30
0
11
-482.8
21
-32.5
31
0
0
LINE
8
OBJECT
10
-482.8
20
-32.5
30
0
11
-543.2
21
-32.5
31
0
0
LINE
8
OBJECT
10
-543.2
20
-32.5
30
0
11
-546.2
21
-25.35
31
0
0
LINE
8
OBJECT
10
-546.2
20
-25.35
30
0
11
-577
21
-25.35
31
0
0
LINE
8
OBJECT
10
-577
20
-25.35
30
0
11
-580
21
-22.425
31
0
0
LINE
8
OBJECT
10
-580
20
-22.425
30
0
11
-580
21
0
31
0
0
LINE
8
OBJECT
10
-350
20
0
30
0
11
-350
21
42.9
31
0
0
LINE
8
OBJECT
10
-350
20
42.9
30
0
11
-354
21
46.15
31
0
0
LINE
8
OBJECT
10
-354
20
46.15
30
0
11
-384
21
46.15
31
0
0
LINE
8
OBJECT
10
-384
20
46.15
30
0
11
-389
21
39
31
0
0
LINE
8
OBJECT
10
-389
20
39
30
0
11
-478.8
21
39
31
0
0
LINE
8
OBJECT
10
-478.8
20
39
30
0
11
-482.8
21
32.5
31
0
0
LINE
8
OBJECT
10
-482.8
20
32.5
30
0
11
-543.2
21
32.5
31
0
0
LINE
8
OBJECT
10
-543.2
20
32.5
30
0
11
-546.2
21
25.35
31
0
0
LINE
8
OBJECT
10
-546.2
20
25.35
30
0
11
-577
21
25.35
31
0
0
LINE
8
OBJECT
10
-577
20
25.35
30
0
11
-580
21
22.425
31
0
0
LINE
8
OBJECT
10
-580
20
22.425
30
0
11
-580
21
0
31
0
0
LINE
8
OBJECT
10
350
20
0
30
0
11
350
21
-42.9
31
0
0
LINE
8
OBJECT
10
350
20
-42.9
30
0
11
354
21
-46.15
31
0
0
LINE
8
OBJECT
10
354
20
-46.15
30
0
11
384
21
-46.15
31
0
0
LINE
8
OBJECT
10
384
20
-46.15
30
0
11
389
21
-39
31
0
0
LINE
8
OBJECT
10
389
20
-39
30
0
11
495.6
21
-39
31
0
0
LINE
8
OBJECT
10
495.6
20
-39
30
0
11
499.6
21
-32.5
31
0
0
LINE
8
OBJECT
10
499.6
20
-32.5
30
0
11
568.4
21
-32.5
31
0
0
LINE
8
OBJECT
10
568.4
20
-32.5
30
0
11
571.4
21
-25.35
31
0
0
LINE
8
OBJECT
10
571.4
20
-25.35
30
0
11
607
21
-25.35
31
0
0
LINE
8
OBJECT
10
607
20
-25.35
30
0
11
610
21
-22.425
31
0
0
LINE
8
OBJECT
10
610
20
-22.425
30
0
11
610
21
0
31
0
0
LINE
8
OBJECT
10
350
20
0
30
0
11
350
21
42.9
31
0
0
LINE
8
OBJECT
10
350
20
42.9
30
0
11
354
21
46.15
31
0
0
LINE
8
OBJECT
10
354
20
46.15
30
0
11
384
21
46.15
31
0
0
LINE
8
OBJECT
10
384
20
46.15
30
0
11
389
21
39
31
0
0
LINE
8
OBJECT
10
389
20
39
30
0
11
495.6
21
39
31
0
0
LINE
8
OBJECT
10
495.6
20
39
30
0
11
499.6
21
32.5
31
0
0
LINE
8
OBJECT
10
499.6
20
32.5
30
0
11
568.4
21
32.5
31
0
0
LINE
8
OBJECT
10
568.4
20
32.5
30
0
11
571.4
21
25.35
31
0
0
LINE
8
OBJECT
10
571.4
20
25.35
30
0
11
607
21
25.35
31
0
0
LINE
8
OBJECT
10
607
20
25.35
30
0
11
610
21
22.425
31
0
0
LINE
8
OBJECT
10
610
20
22.425
30
0
11
610
21
0
31
0
0
LINE
8
CENTER
10
-620
20
0
30
0
11
650
21
0
31
0
0
LINE
8
DIM
10
-350
20
-245
30
0
11
-350
21
-190
31
0
0
LINE
8
DIM
10
350
20
-245
30
0
11
350
21
-190
31
0
0
LINE
8
DIM
10
-350
20
-215
30
0
11
350
21
-215
31
0
0
LINE
8
DIM
10
-350
20
-215
30
0
11
-338
21
-221
31
0
0
LINE
8
DIM
10
-350
20
-215
30
0
11
-338
21
-209
31
0
0
LINE
8
DIM
10
350
20
-215
30
0
11
338
21
-221
31
0
0
LINE
8
DIM
10
350
20
-215
30
0
11
338
21
-209
31
0
0
TEXT
8
DIM
10
0
20
-201
30
0
40
22
1
몸통 길이 700
0
LINE
8
DIM
10
-580
20
-330
30
0
11
-580
21
-275
31
0
0
LINE
8
DIM
10
610
20
-330
30
0
11
610
21
-275
31
0
0
LINE
8
DIM
10
-580
20
-300
30
0
11
610
21
-300
31
0
0
LINE
8
DIM
10
-580
20
-300
30
0
11
-568
21
-306
31
0
0
LINE
8
DIM
10
-580
20
-300
30
0
11
-568
21
-294
31
0
0
LINE
8
DIM
10
610
20
-300
30
0
11
598
21
-306
31
0
0
LINE
8
DIM
10
610
20
-300
30
0
11
598
21
-294
31
0
0
TEXT
8
DIM
10
15
20
-286
30
0
40
22
1
전체 길이 1190
0
TEXT
8
TEXT
10
0
20
185
30
0
40
24
1
정면도 · 외경 Ø260 / 축 기준 Ø65
0
CIRCLE
8
OBJECT
10
0
20
470
30
0
40
130
0
CIRCLE
8
OBJECT
10
0
20
470
30
0
40
111
0
CIRCLE
8
OBJECT
10
0
20
470
30
0
40
32.5
0
LINE
8
CENTER
10
-160
20
470
30
0
11
160
21
470
31
0
0
LINE
8
CENTER
10
0
20
310
30
0
11
0
21
630
31
0
0
TEXT
8
TEXT
10
0
20
640
30
0
40
22
1
단부 투영 / 내부 경계는 가정
0
ENDSEC
0
EOF
