0
SECTION
2
HEADER
9
$ACADVER
1
AC1021
9
$INSUNITS
70
4
0
ENDSEC
0
SECTION
2
ENTITIES
0
LINE
8
OBJECT
10
-350
20
90
30
0
11
350
21
90
31
0
0
LINE
8
OBJECT
10
350
20
90
30
0
11
350
21
350
31
0
0
LINE
8
OBJECT
10
350
20
350
30
0
11
-350
21
350
31
0
0
LINE
8
OBJECT
10
-350
20
350
30
0
11
-350
21
90
31
0
0
TEXT
8
TEXT
10
0
20
395
30
0
40
22
1
01 표면층 / 사선 홈 또는 표면 마감
0
LINE
8
OBJECT
10
-350
20
-111
30
0
11
350
21
-111
31
0
0
LINE
8
OBJECT
10
350
20
-111
30
0
11
350
21
111
31
0
0
LINE
8
OBJECT
10
350
20
111
30
0
11
-350
21
111
31
0
0
LINE
8
OBJECT
10
-350
20
111
30
0
11
-350
21
-111
31
0
0
LINE
8
HATCH
10
-350
20
-95
30
0
11
350
21
-95
31
0
0
LINE
8
HATCH
10
350
20
-95
30
0
11
350
21
95
31
0
0
LINE
8
HATCH
10
350
20
95
30
0
11
-350
21
95
31
0
0
LINE
8
HATCH
10
-350
20
95
30
0
11
-350
21
-95
31
0
0
LINE
8
HATCH
10
-350
20
-111
30
0
11
-350
21
-111
31
0
0
LINE
8
HATCH
10
-341
20
-95
30
0
11
-325
21
-111
31
0
0
LINE
8
HATCH
10
-316
20
-95
30
0
11
-300
21
-111
31
0
0
LINE
8
HATCH
10
-291
20
-95
30
0
11
-275
21
-111
31
0
0
LINE
8
HATCH
10
-266
20
-95
30
0
11
-250
21
-111
31
0
0
LINE
8
HATCH
10
-241
20
-95
30
0
11
-225
21
-111
31
0
0
LINE
8
HATCH
10
-216
20
-95
30
0
11
-200
21
-111
31
0
0
LINE
8
HATCH
10
-191
20
-95
30
0
11
-175
21
-111
31
0
0
LINE
8
HATCH
10
-166
20
-95
30
0
11
-150
21
-111
31
0
0
LINE
8
HATCH
10
-141
20
-95
30
0
11
-125
21
-111
31
0
0
LINE
8
HATCH
10
-116
20
-95
30
0
11
-100
21
-111
31
0
0
LINE
8
HATCH
10
-91
20
-95
30
0
11
-75
21
-111
31
0
0
LINE
8
HATCH
10
-66
20
-95
30
0
11
-50
21
-111
31
0
0
LINE
8
HATCH
10
-41
20
-95
30
0
11
-25
21
-111
31
0
0
LINE
8
HATCH
10
-16
20
-95
30
0
11
0
21
-111
31
0
0
LINE
8
HATCH
10
9
20
-95
30
0
11
25
21
-111
31
0
0
LINE
8
HATCH
10
34
20
-95
30
0
11
50
21
-111
31
0
0
LINE
8
HATCH
10
59
20
-95
30
0
11
75
21
-111
31
0
0
LINE
8
HATCH
10
84
20
-95
30
0
11
100
21
-111
31
0
0
LINE
8
HATCH
10
109
20
-95
30
0
11
125
21
-111
31
0
0
LINE
8
HATCH
10
134
20
-95
30
0
11
150
21
-111
31
0
0
LINE
8
HATCH
10
159
20
-95
30
0
11
175
21
-111
31
0
0
LINE
8
HATCH
10
184
20
-95
30
0
11
200
21
-111
31
0
0
LINE
8
HATCH
10
209
20
-95
30
0
11
225
21
-111
31
0
0
LINE
8
HATCH
10
234
20
-95
30
0
11
250
21
-111
31
0
0
LINE
8
HATCH
10
259
20
-95
30
0
11
275
21
-111
31
0
0
LINE
8
HATCH
10
284
20
-95
30
0
11
300
21
-111
31
0
0
LINE
8
HATCH
10
309
20
-95
30
0
11
325
21
-111
31
0
0
LINE
8
HATCH
10
334
20
-95
30
0
11
350
21
-111
31
0
0
LINE
8
HATCH
10
-350
20
95
30
0
11
-350
21
95
31
0
0
LINE
8
HATCH
10
-341
20
111
30
0
11
-325
21
95
31
0
0
LINE
8
HATCH
10
-316
20
111
30
0
11
-300
21
95
31
0
0
LINE
8
HATCH
10
-291
20
111
30
0
11
-275
21
95
31
0
0
LINE
8
HATCH
10
-266
20
111
30
0
11
-250
21
95
31
0
0
LINE
8
HATCH
10
-241
20
111
30
0
11
-225
21
95
31
0
0
LINE
8
HATCH
10
-216
20
111
30
0
11
-200
21
95
31
0
0
LINE
8
HATCH
10
-191
20
111
30
0
11
-175
21
95
31
0
0
LINE
8
HATCH
10
-166
20
111
30
0
11
-150
21
95
31
0
0
LINE
8
HATCH
10
-141
20
111
30
0
11
-125
21
95
31
0
0
LINE
8
HATCH
10
-116
20
111
30
0
11
-100
21
95
31
0
0
LINE
8
HATCH
10
-91
20
111
30
0
11
-75
21
95
31
0
0
LINE
8
HATCH
10
-66
20
111
30
0
11
-50
21
95
31
0
0
LINE
8
HATCH
10
-41
20
111
30
0
11
-25
21
95
31
0
0
LINE
8
HATCH
10
-16
20
111
30
0
11
0
21
95
31
0
0
LINE
8
HATCH
10
9
20
111
30
0
11
25
21
95
31
0
0
LINE
8
HATCH
10
34
20
111
30
0
11
50
21
95
31
0
0
LINE
8
HATCH
10
59
20
111
30
0
11
75
21
95
31
0
0
LINE
8
HATCH
10
84
20
111
30
0
11
100
21
95
31
0
0
LINE
8
HATCH
10
109
20
111
30
0
11
125
21
95
31
0
0
LINE
8
HATCH
10
134
20
111
30
0
11
150
21
95
31
0
0
LINE
8
HATCH
10
159
20
111
30
0
11
175
21
95
31
0
0
LINE
8
HATCH
10
184
20
111
30
0
11
200
21
95
31
0
0
LINE
8
HATCH
10
209
20
111
30
0
11
225
21
95
31
0
0
LINE
8
HATCH
10
234
20
111
30
0
11
250
21
95
31
0
0
LINE
8
HATCH
10
259
20
111
30
0
11
275
21
95
31
0
0
LINE
8
HATCH
10
284
20
111
30
0
11
300
21
95
31
0
0
LINE
8
HATCH
10
309
20
111
30
0
11
325
21
95
31
0
0
LINE
8
HATCH
10
334
20
111
30
0
11
350
21
95
31
0
0
TEXT
8
TEXT
10
0
20
-153
30
0
40
22
1
02 내부 심관 (가정)
0
LINE
8
OBJECT
10
-478
20
-111
30
0
11
-462
21
-111
31
0
0
LINE
8
OBJECT
10
-462
20
-111
30
0
11
-462
21
111
31
0
0
LINE
8
OBJECT
10
-462
20
111
30
0
11
-478
21
111
31
0
0
LINE
8
OBJECT
10
-478
20
111
30
0
11
-478
21
-111
31
0
0
LINE
8
OBJECT
10
-590
20
0
30
0
11
-590
21
-42.9
31
0
0
LINE
8
OBJECT
10
-590
20
-42.9
30
0
11
-594
21
-46.15
31
0
0
LINE
8
OBJECT
10
-594
20
-46.15
30
0
11
-624
21
-46.15
31
0
0
LINE
8
OBJECT
10
-624
20
-46.15
30
0
11
-629
21
-39
31
0
0
LINE
8
OBJECT
10
-629
20
-39
30
0
11
-718.8
21
-39
31
0
0
LINE
8
OBJECT
10
-718.8
20
-39
30
0
11
-722.8
21
-32.5
31
0
0
LINE
8
OBJECT
10
-722.8
20
-32.5
30
0
11
-783.2
21
-32.5
31
0
0
LINE
8
OBJECT
10
-783.2
20
-32.5
30
0
11
-786.2
21
-25.35
31
0
0
LINE
8
OBJECT
10
-786.2
20
-25.35
30
0
11
-817
21
-25.35
31
0
0
LINE
8
OBJECT
10
-817
20
-25.35
30
0
11
-820
21
-22.425
31
0
0
LINE
8
OBJECT
10
-820
20
-22.425
30
0
11
-820
21
0
31
0
0
LINE
8
OBJECT
10
-590
20
0
30
0
11
-590
21
42.9
31
0
0
LINE
8
OBJECT
10
-590
20
42.9
30
0
11
-594
21
46.15
31
0
0
LINE
8
OBJECT
10
-594
20
46.15
30
0
11
-624
21
46.15
31
0
0
LINE
8
OBJECT
10
-624
20
46.15
30
0
11
-629
21
39
31
0
0
LINE
8
OBJECT
10
-629
20
39
30
0
11
-718.8
21
39
31
0
0
LINE
8
OBJECT
10
-718.8
20
39
30
0
11
-722.8
21
32.5
31
0
0
LINE
8
OBJECT
10
-722.8
20
32.5
30
0
11
-783.2
21
32.5
31
0
0
LINE
8
OBJECT
10
-783.2
20
32.5
30
0
11
-786.2
21
25.35
31
0
0
LINE
8
OBJECT
10
-786.2
20
25.35
30
0
11
-817
21
25.35
31
0
0
LINE
8
OBJECT
10
-817
20
25.35
30
0
11
-820
21
22.425
31
0
0
LINE
8
OBJECT
10
-820
20
22.425
30
0
11
-820
21
0
31
0
0
LINE
8
CENTER
10
-350
20
0
30
0
11
-590
21
0
31
0
0
TEXT
8
TEXT
10
-500
20
-171
30
0
40
22
1
03 단부 / 04 단차 축
0
LINE
8
OBJECT
10
462
20
-111
30
0
11
478
21
-111
31
0
0
LINE
8
OBJECT
10
478
20
-111
30
0
11
478
21
111
31
0
0
LINE
8
OBJECT
10
478
20
111
30
0
11
462
21
111
31
0
0
LINE
8
OBJECT
10
462
20
111
30
0
11
462
21
-111
31
0
0
LINE
8
OBJECT
10
590
20
0
30
0
11
590
21
-42.9
31
0
0
LINE
8
OBJECT
10
590
20
-42.9
30
0
11
594
21
-46.15
31
0
0
LINE
8
OBJECT
10
594
20
-46.15
30
0
11
624
21
-46.15
31
0
0
LINE
8
OBJECT
10
624
20
-46.15
30
0
11
629
21
-39
31
0
0
LINE
8
OBJECT
10
629
20
-39
30
0
11
735.6
21
-39
31
0
0
LINE
8
OBJECT
10
735.6
20
-39
30
0
11
739.6
21
-32.5
31
0
0
LINE
8
OBJECT
10
739.6
20
-32.5
30
0
11
808.4
21
-32.5
31
0
0
LINE
8
OBJECT
10
808.4
20
-32.5
30
0
11
811.4
21
-25.35
31
0
0
LINE
8
OBJECT
10
811.4
20
-25.35
30
0
11
847
21
-25.35
31
0
0
LINE
8
OBJECT
10
847
20
-25.35
30
0
11
850
21
-22.425
31
0
0
LINE
8
OBJECT
10
850
20
-22.425
30
0
11
850
21
0
31
0
0
LINE
8
OBJECT
10
590
20
0
30
0
11
590
21
42.9
31
0
0
LINE
8
OBJECT
10
590
20
42.9
30
0
11
594
21
46.15
31
0
0
LINE
8
OBJECT
10
594
20
46.15
30
0
11
624
21
46.15
31
0
0
LINE
8
OBJECT
10
624
20
46.15
30
0
11
629
21
39
31
0
0
LINE
8
OBJECT
10
629
20
39
30
0
11
735.6
21
39
31
0
0
LINE
8
OBJECT
10
735.6
20
39
30
0
11
739.6
21
32.5
31
0
0
LINE
8
OBJECT
10
739.6
20
32.5
30
0
11
808.4
21
32.5
31
0
0
LINE
8
OBJECT
10
808.4
20
32.5
30
0
11
811.4
21
25.35
31
0
0
LINE
8
OBJECT
10
811.4
20
25.35
30
0
11
847
21
25.35
31
0
0
LINE
8
OBJECT
10
847
20
25.35
30
0
11
850
21
22.425
31
0
0
LINE
8
OBJECT
10
850
20
22.425
30
0
11
850
21
0
31
0
0
LINE
8
CENTER
10
350
20
0
30
0
11
590
21
0
31
0
0
TEXT
8
TEXT
10
500
20
-171
30
0
40
22
1
03 단부 / 04 단차 축
0
ENDSEC
0
EOF
