<svg xmlns="http://www.w3.org/2000/svg" viewBox="0 0 1200 800" role="img" aria-label="양단 축 롤 외형·조립도"><rect width="1200" height="800" fill="#fbfcfd"/><g font-family="Arial, Malgun Gothic, sans-serif"><rect x="24" y="24" width="1152" height="752" fill="none" stroke="#c6d0d9"/><text x="50" y="64" font-size="23" fill="#203244">승지정밀산업롤 · 양단 축 롤</text><text x="1150" y="63" text-anchor="end" font-size="15" fill="#687b8c">R–03 / 외형·조립도 / TEST2</text><line x1="24" y1="88" x2="1176" y2="88" stroke="#c6d0d9"/><line x1="401.31048387096774" y1="531.1290322580645" x2="782.358870967742" y2="531.1290322580645" stroke="#294052" stroke-width="1.6" /><line x1="782.358870967742" y1="531.1290322580645" x2="782.358870967742" y2="389.5967741935484" stroke="#294052" stroke-width="1.6" /><line x1="782.358870967742" y1="389.5967741935484" x2="401.31048387096774" y2="389.5967741935484" stroke="#294052" stroke-width="1.6" /><line x1="401.31048387096774" y1="389.5967741935484" x2="401.31048387096774" y2="531.1290322580645" stroke="#294052" stroke-width="1.6" /><line x1="401.31048387096774" y1="460.36290322580646" x2="401.31048387096774" y2="483.7157258064516" stroke="#294052" stroke-width="1.6" /><line x1="401.31048387096774" y1="483.7157258064516" x2="399.133064516129" y2="485.48487903225805" stroke="#294052" stroke-width="1.6" /><line x1="399.133064516129" y1="485.48487903225805" x2="382.8024193548387" y2="485.48487903225805" stroke="#294052" stroke-width="1.6" /><line x1="382.8024193548387" y1="485.48487903225805" x2="380.08064516129036" y2="481.59274193548384" stroke="#294052" stroke-width="1.6" /><line x1="380.08064516129036" y1="481.59274193548384" x2="331.1975806451613" y2="481.59274193548384" stroke="#294052" stroke-width="1.6" /><line x1="331.1975806451613" y1="481.59274193548384" x2="329.0201612903226" y2="478.054435483871" stroke="#294052" stroke-width="1.6" /><line x1="329.0201612903226" y1="478.054435483871" x2="296.14112903225805" y2="478.054435483871" stroke="#294052" stroke-width="1.6" /><line x1="296.14112903225805" y1="478.054435483871" x2="294.508064516129" y2="474.16229838709677" stroke="#294052" stroke-width="1.6" /><line x1="294.508064516129" y1="474.16229838709677" x2="277.741935483871" y2="474.16229838709677" stroke="#294052" stroke-width="1.6" /><line x1="277.741935483871" y1="474.16229838709677" x2="276.10887096774195" y2="472.570060483871" stroke="#294052" stroke-width="1.6" /><line x1="276.10887096774195" y1="472.570060483871" x2="276.10887096774195" y2="460.36290322580646" stroke="#294052" stroke-width="1.6" /><line x1="401.31048387096774" y1="460.36290322580646" x2="401.31048387096774" y2="437.0100806451613" stroke="#294052" stroke-width="1.6" /><line x1="401.31048387096774" y1="437.0100806451613" x2="399.133064516129" y2="435.2409274193548" stroke="#294052" stroke-width="1.6" /><line x1="399.133064516129" y1="435.2409274193548" x2="382.8024193548387" y2="435.2409274193548" stroke="#294052" stroke-width="1.6" /><line x1="382.8024193548387" y1="435.2409274193548" x2="380.08064516129036" y2="439.133064516129" stroke="#294052" stroke-width="1.6" /><line x1="380.08064516129036" y1="439.133064516129" x2="331.1975806451613" y2="439.133064516129" stroke="#294052" stroke-width="1.6" /><line x1="331.1975806451613" y1="439.133064516129" x2="329.0201612903226" y2="442.67137096774195" stroke="#294052" stroke-width="1.6" /><line x1="329.0201612903226" y1="442.67137096774195" x2="296.14112903225805" y2="442.67137096774195" stroke="#294052" stroke-width="1.6" /><line x1="296.14112903225805" y1="442.67137096774195" x2="294.508064516129" y2="446.5635080645161" stroke="#294052" stroke-width="1.6" /><line x1="294.508064516129" y1="446.5635080645161" x2="277.741935483871" y2="446.5635080645161" stroke="#294052" stroke-width="1.6" /><line x1="277.741935483871" y1="446.5635080645161" x2="276.10887096774195" y2="448.15574596774195" stroke="#294052" stroke-width="1.6" /><line x1="276.10887096774195" y1="448.15574596774195" x2="276.10887096774195" y2="460.36290322580646" stroke="#294052" stroke-width="1.6" /><line x1="782.358870967742" y1="460.36290322580646" x2="782.358870967742" y2="483.7157258064516" stroke="#294052" stroke-width="1.6" /><line x1="782.358870967742" y1="483.7157258064516" x2="784.5362903225806" y2="485.48487903225805" stroke="#294052" stroke-width="1.6" /><line x1="784.5362903225806" y1="485.48487903225805" x2="800.866935483871" y2="485.48487903225805" stroke="#294052" stroke-width="1.6" /><line x1="800.866935483871" y1="485.48487903225805" x2="803.5887096774193" y2="481.59274193548384" stroke="#294052" stroke-width="1.6" /><line x1="803.5887096774193" y1="481.59274193548384" x2="861.616935483871" y2="481.59274193548384" stroke="#294052" stroke-width="1.6" /><line x1="861.616935483871" y1="481.59274193548384" x2="863.7943548387098" y2="478.054435483871" stroke="#294052" stroke-width="1.6" /><line x1="863.7943548387098" y1="478.054435483871" x2="901.2459677419354" y2="478.054435483871" stroke="#294052" stroke-width="1.6" /><line x1="901.2459677419354" y1="478.054435483871" x2="902.8790322580644" y2="474.16229838709677" stroke="#294052" stroke-width="1.6" /><line x1="902.8790322580644" y1="474.16229838709677" x2="922.258064516129" y2="474.16229838709677" stroke="#294052" stroke-width="1.6" /><line x1="922.258064516129" y1="474.16229838709677" x2="923.891129032258" y2="472.570060483871" stroke="#294052" stroke-width="1.6" /><line x1="923.891129032258" y1="472.570060483871" x2="923.891129032258" y2="460.36290322580646" stroke="#294052" stroke-width="1.6" /><line x1="782.358870967742" y1="460.36290322580646" x2="782.358870967742" y2="437.0100806451613" stroke="#294052" stroke-width="1.6" /><line x1="782.358870967742" y1="437.0100806451613" x2="784.5362903225806" y2="435.2409274193548" stroke="#294052" stroke-width="1.6" /><line x1="784.5362903225806" y1="435.2409274193548" x2="800.866935483871" y2="435.2409274193548" stroke="#294052" stroke-width="1.6" /><line x1="800.866935483871" y1="435.2409274193548" x2="803.5887096774193" y2="439.133064516129" stroke="#294052" stroke-width="1.6" /><line x1="803.5887096774193" y1="439.133064516129" x2="861.616935483871" y2="439.133064516129" stroke="#294052" stroke-width="1.6" /><line x1="861.616935483871" y1="439.133064516129" x2="863.7943548387098" y2="442.67137096774195" stroke="#294052" stroke-width="1.6" /><line x1="863.7943548387098" y1="442.67137096774195" x2="901.2459677419354" y2="442.67137096774195" stroke="#294052" stroke-width="1.6" /><line x1="901.2459677419354" y1="442.67137096774195" x2="902.8790322580644" y2="446.5635080645161" stroke="#294052" stroke-width="1.6" /><line x1="902.8790322580644" y1="446.5635080645161" x2="922.258064516129" y2="446.5635080645161" stroke="#294052" stroke-width="1.6" /><line x1="922.258064516129" y1="446.5635080645161" x2="923.891129032258" y2="448.15574596774195" stroke="#294052" stroke-width="1.6" /><line x1="923.891129032258" y1="448.15574596774195" x2="923.891129032258" y2="460.36290322580646" stroke="#294052" stroke-width="1.6" /><line x1="254.33467741935488" y1="460.36290322580646" x2="945.6653225806451" y2="460.36290322580646" stroke="#9aabb7" stroke-width="0.9" stroke-dasharray="8 5"/><line x1="401.31048387096774" y1="593.7298387096774" x2="401.31048387096774" y2="563.7903225806451" stroke="#648297" stroke-width="0.9" /><line x1="782.358870967742" y1="593.7298387096774" x2="782.358870967742" y2="563.7903225806451" stroke="#648297" stroke-width="0.9" /><line x1="401.31048387096774" y1="577.3991935483871" x2="782.358870967742" y2="577.3991935483871" stroke="#648297" stroke-width="0.9" /><line x1="401.31048387096774" y1="577.3991935483871" x2="407.8427419354839" y2="580.6653225806451" stroke="#648297" stroke-width="0.9" /><line x1="401.31048387096774" y1="577.3991935483871" x2="407.8427419354839" y2="574.133064516129" stroke="#648297" stroke-width="0.9" /><line x1="782.358870967742" y1="577.3991935483871" x2="775.8266129032259" y2="580.6653225806451" stroke="#648297" stroke-width="0.9" /><line x1="782.358870967742" y1="577.3991935483871" x2="775.8266129032259" y2="574.133064516129" stroke="#648297" stroke-width="0.9" /><text x="591.8346774193549" y="569.7782258064516" text-anchor="middle" fill="#648297" font-size="12">몸통 길이 700</text><line x1="276.10887096774195" y1="640" x2="276.10887096774195" y2="610.0604838709677" stroke="#648297" stroke-width="0.9" /><line x1="923.891129032258" y1="640" x2="923.891129032258" y2="610.0604838709677" stroke="#648297" stroke-width="0.9" /><line x1="276.10887096774195" y1="623.6693548387096" x2="923.891129032258" y2="623.6693548387096" stroke="#648297" stroke-width="0.9" /><line x1="276.10887096774195" y1="623.6693548387096" x2="282.6411290322581" y2="626.9354838709678" stroke="#648297" stroke-width="0.9" /><line x1="276.10887096774195" y1="623.6693548387096" x2="282.6411290322581" y2="620.4032258064516" stroke="#648297" stroke-width="0.9" /><line x1="923.891129032258" y1="623.6693548387096" x2="917.358870967742" y2="626.9354838709678" stroke="#648297" stroke-width="0.9" /><line x1="923.891129032258" y1="623.6693548387096" x2="917.358870967742" y2="620.4032258064516" stroke="#648297" stroke-width="0.9" /><text x="600" y="616.0483870967741" text-anchor="middle" fill="#648297" font-size="12">전체 길이 1190</text><text x="591.8346774193549" y="359.65725806451616" text-anchor="middle" fill="#294052" font-size="13.064516129032256">정면도 · 외경 Ø260 / 축 기준 Ø65</text><circle cx="591.8346774193549" cy="204.51612903225808" r="70.76612903225806" stroke="#294052" stroke-width="1.4" fill="none"/><circle cx="591.8346774193549" cy="204.51612903225808" r="60.42338709677419" stroke="#294052" stroke-width="1.4" fill="none"/><circle cx="591.8346774193549" cy="204.51612903225808" r="17.691532258064516" stroke="#294052" stroke-width="1.4" fill="none"/><line x1="504.73790322580646" y1="204.51612903225808" x2="678.9314516129032" y2="204.51612903225808" stroke="#9aabb7" stroke-width="0.9" stroke-dasharray="8 5"/><line x1="591.8346774193549" y1="291.61290322580646" x2="591.8346774193549" y2="117.4193548387097" stroke="#9aabb7" stroke-width="0.9" stroke-dasharray="8 5"/><text x="591.8346774193549" y="111.97580645161293" text-anchor="middle" fill="#294052" font-size="12">단부 투영 / 내부 경계는 가정</text><line x1="24" y1="679" x2="1176" y2="679" stroke="#c6d0d9"/><text x="50" y="711" font-size="15" fill="#203244">외형과 내부를 설명하는 검토용 조립도</text><text x="50" y="739" font-size="14" fill="#687b8c">사진의 비례를 기준으로 만든 검토용 모델입니다. 표기 치수는 가정값이며 제작용 확정 도면이 아닙니다.</text><text x="1150" y="761" text-anchor="end" font-size="12" fill="#687b8c">단위 mm · 화면 맞춤 축척 · REV A · 기준 비율 1</text></g></svg>