0
SECTION
2
HEADER
9
$ACADVER
1
AC1021
9
$INSUNITS
70
4
0
ENDSEC
0
SECTION
2
ENTITIES
0
LINE
8
OBJECT
10
-1218
20
0
30
0
11
-1142
21
0
31
0
0
LINE
8
OBJECT
10
-1142
20
0
30
0
11
-1142
21
1310
31
0
0
LINE
8
OBJECT
10
-1142
20
1310
30
0
11
-1218
21
1310
31
0
0
LINE
8
OBJECT
10
-1218
20
1310
30
0
11
-1218
21
0
31
0
0
LINE
8
OBJECT
10
1142
20
0
30
0
11
1218
21
0
31
0
0
LINE
8
OBJECT
10
1218
20
0
30
0
11
1218
21
1310
31
0
0
LINE
8
OBJECT
10
1218
20
1310
30
0
11
1142
21
1310
31
0
0
LINE
8
OBJECT
10
1142
20
1310
30
0
11
1142
21
0
31
0
0
LINE
8
OBJECT
10
-800
20
929.5
30
0
11
800
21
929.5
31
0
0
LINE
8
OBJECT
10
800
20
929.5
30
0
11
800
21
1085.5
31
0
0
LINE
8
OBJECT
10
800
20
1085.5
30
0
11
-800
21
1085.5
31
0
0
LINE
8
OBJECT
10
-800
20
1085.5
30
0
11
-800
21
929.5
31
0
0
LINE
8
OBJECT
10
-1295
20
947.5
30
0
11
-1245
21
947.5
31
0
0
LINE
8
OBJECT
10
-1245
20
947.5
30
0
11
-1245
21
1067.5
31
0
0
LINE
8
OBJECT
10
-1245
20
1067.5
30
0
11
-1295
21
1067.5
31
0
0
LINE
8
OBJECT
10
-1295
20
1067.5
30
0
11
-1295
21
947.5
31
0
0
LINE
8
CENTER
10
-800
20
1007.5
30
0
11
-1330
21
1007.5
31
0
0
LINE
8
OBJECT
10
1245
20
947.5
30
0
11
1295
21
947.5
31
0
0
LINE
8
OBJECT
10
1295
20
947.5
30
0
11
1295
21
1067.5
31
0
0
LINE
8
OBJECT
10
1295
20
1067.5
30
0
11
1245
21
1067.5
31
0
0
LINE
8
OBJECT
10
1245
20
1067.5
30
0
11
1245
21
947.5
31
0
0
LINE
8
CENTER
10
800
20
1007.5
30
0
11
1330
21
1007.5
31
0
0
TEXT
8
TEXT
10
0
20
1007.5
30
0
40
26
1
1단 롤 모듈
0
LINE
8
OBJECT
10
-800
20
751.5
30
0
11
800
21
751.5
31
0
0
LINE
8
OBJECT
10
800
20
751.5
30
0
11
800
21
983.5
31
0
0
LINE
8
OBJECT
10
800
20
983.5
30
0
11
-800
21
983.5
31
0
0
LINE
8
OBJECT
10
-800
20
983.5
30
0
11
-800
21
751.5
31
0
0
LINE
8
OBJECT
10
-1295
20
807.5
30
0
11
-1245
21
807.5
31
0
0
LINE
8
OBJECT
10
-1245
20
807.5
30
0
11
-1245
21
927.5
31
0
0
LINE
8
OBJECT
10
-1245
20
927.5
30
0
11
-1295
21
927.5
31
0
0
LINE
8
OBJECT
10
-1295
20
927.5
30
0
11
-1295
21
807.5
31
0
0
LINE
8
CENTER
10
-800
20
867.5
30
0
11
-1330
21
867.5
31
0
0
LINE
8
OBJECT
10
1245
20
807.5
30
0
11
1295
21
807.5
31
0
0
LINE
8
OBJECT
10
1295
20
807.5
30
0
11
1295
21
927.5
31
0
0
LINE
8
OBJECT
10
1295
20
927.5
30
0
11
1245
21
927.5
31
0
0
LINE
8
OBJECT
10
1245
20
927.5
30
0
11
1245
21
807.5
31
0
0
LINE
8
CENTER
10
800
20
867.5
30
0
11
1330
21
867.5
31
0
0
TEXT
8
TEXT
10
0
20
867.5
30
0
40
26
1
2단 롤 모듈
0
LINE
8
OBJECT
10
-800
20
675.5
30
0
11
800
21
675.5
31
0
0
LINE
8
OBJECT
10
800
20
675.5
30
0
11
800
21
859.5
31
0
0
LINE
8
OBJECT
10
800
20
859.5
30
0
11
-800
21
859.5
31
0
0
LINE
8
OBJECT
10
-800
20
859.5
30
0
11
-800
21
675.5
31
0
0
LINE
8
OBJECT
10
-1295
20
707.5
30
0
11
-1245
21
707.5
31
0
0
LINE
8
OBJECT
10
-1245
20
707.5
30
0
11
-1245
21
827.5
31
0
0
LINE
8
OBJECT
10
-1245
20
827.5
30
0
11
-1295
21
827.5
31
0
0
LINE
8
OBJECT
10
-1295
20
827.5
30
0
11
-1295
21
707.5
31
0
0
LINE
8
CENTER
10
-800
20
767.5
30
0
11
-1330
21
767.5
31
0
0
LINE
8
OBJECT
10
1245
20
707.5
30
0
11
1295
21
707.5
31
0
0
LINE
8
OBJECT
10
1295
20
707.5
30
0
11
1295
21
827.5
31
0
0
LINE
8
OBJECT
10
1295
20
827.5
30
0
11
1245
21
827.5
31
0
0
LINE
8
OBJECT
10
1245
20
827.5
30
0
11
1245
21
707.5
31
0
0
LINE
8
CENTER
10
800
20
767.5
30
0
11
1330
21
767.5
31
0
0
TEXT
8
TEXT
10
0
20
767.5
30
0
40
26
1
3단 롤 모듈
0
LINE
8
OBJECT
10
-800
20
592.5
30
0
11
800
21
592.5
31
0
0
LINE
8
OBJECT
10
800
20
592.5
30
0
11
800
21
802.5
31
0
0
LINE
8
OBJECT
10
800
20
802.5
30
0
11
-800
21
802.5
31
0
0
LINE
8
OBJECT
10
-800
20
802.5
30
0
11
-800
21
592.5
31
0
0
LINE
8
OBJECT
10
-1295
20
637.5
30
0
11
-1245
21
637.5
31
0
0
LINE
8
OBJECT
10
-1245
20
637.5
30
0
11
-1245
21
757.5
31
0
0
LINE
8
OBJECT
10
-1245
20
757.5
30
0
11
-1295
21
757.5
31
0
0
LINE
8
OBJECT
10
-1295
20
757.5
30
0
11
-1295
21
637.5
31
0
0
LINE
8
CENTER
10
-800
20
697.5
30
0
11
-1330
21
697.5
31
0
0
LINE
8
OBJECT
10
1245
20
637.5
30
0
11
1295
21
637.5
31
0
0
LINE
8
OBJECT
10
1295
20
637.5
30
0
11
1295
21
757.5
31
0
0
LINE
8
OBJECT
10
1295
20
757.5
30
0
11
1245
21
757.5
31
0
0
LINE
8
OBJECT
10
1245
20
757.5
30
0
11
1245
21
637.5
31
0
0
LINE
8
CENTER
10
800
20
697.5
30
0
11
1330
21
697.5
31
0
0
TEXT
8
TEXT
10
0
20
697.5
30
0
40
26
1
4단 롤 모듈
0
TEXT
8
TEXT
10
0
20
1610
30
0
40
30
1
롤 → 단부·축 → 지지 블록 → 프레임
0
ENDSEC
0
EOF
