0
SECTION
2
HEADER
9
$ACADVER
1
AC1021
9
$INSUNITS
70
4
0
ENDSEC
0
SECTION
2
ENTITIES
0
LINE
8
OBJECT
10
-948
20
0
30
0
11
-872
21
0
31
0
0
LINE
8
OBJECT
10
-872
20
0
30
0
11
-872
21
1310
31
0
0
LINE
8
OBJECT
10
-872
20
1310
30
0
11
-948
21
1310
31
0
0
LINE
8
OBJECT
10
-948
20
1310
30
0
11
-948
21
0
31
0
0
LINE
8
OBJECT
10
872
20
0
30
0
11
948
21
0
31
0
0
LINE
8
OBJECT
10
948
20
0
30
0
11
948
21
1310
31
0
0
LINE
8
OBJECT
10
948
20
1310
30
0
11
872
21
1310
31
0
0
LINE
8
OBJECT
10
872
20
1310
30
0
11
872
21
0
31
0
0
LINE
8
OBJECT
10
-910
20
70
30
0
11
910
21
70
31
0
0
LINE
8
OBJECT
10
910
20
70
30
0
11
910
21
110
31
0
0
LINE
8
OBJECT
10
910
20
110
30
0
11
-910
21
110
31
0
0
LINE
8
OBJECT
10
-910
20
110
30
0
11
-910
21
70
31
0
0
LINE
8
OBJECT
10
-910
20
1230
30
0
11
910
21
1230
31
0
0
LINE
8
OBJECT
10
910
20
1230
30
0
11
910
21
1270
31
0
0
LINE
8
OBJECT
10
910
20
1270
30
0
11
-910
21
1270
31
0
0
LINE
8
OBJECT
10
-910
20
1270
30
0
11
-910
21
1230
31
0
0
LINE
8
OBJECT
10
-800
20
1132
30
0
11
800
21
1132
31
0
0
LINE
8
OBJECT
10
800
20
1132
30
0
11
800
21
1288
31
0
0
LINE
8
OBJECT
10
800
20
1288
30
0
11
-800
21
1288
31
0
0
LINE
8
OBJECT
10
-800
20
1288
30
0
11
-800
21
1132
31
0
0
LINE
8
CENTER
10
-1050
20
1210
30
0
11
1050
21
1210
31
0
0
LINE
8
OBJECT
10
-960
20
1144
30
0
11
-860
21
1144
31
0
0
LINE
8
OBJECT
10
-860
20
1144
30
0
11
-860
21
1276
31
0
0
LINE
8
OBJECT
10
-860
20
1276
30
0
11
-960
21
1276
31
0
0
LINE
8
OBJECT
10
-960
20
1276
30
0
11
-960
21
1144
31
0
0
LINE
8
OBJECT
10
860
20
1144
30
0
11
960
21
1144
31
0
0
LINE
8
OBJECT
10
960
20
1144
30
0
11
960
21
1276
31
0
0
LINE
8
OBJECT
10
960
20
1276
30
0
11
860
21
1276
31
0
0
LINE
8
OBJECT
10
860
20
1276
30
0
11
860
21
1144
31
0
0
TEXT
8
TEXT
10
0
20
1210
30
0
40
28
1
1단 · Ø156
0
LINE
8
OBJECT
10
-800
20
819
30
0
11
800
21
819
31
0
0
LINE
8
OBJECT
10
800
20
819
30
0
11
800
21
1051
31
0
0
LINE
8
OBJECT
10
800
20
1051
30
0
11
-800
21
1051
31
0
0
LINE
8
OBJECT
10
-800
20
1051
30
0
11
-800
21
819
31
0
0
LINE
8
CENTER
10
-1050
20
935
30
0
11
1050
21
935
31
0
0
LINE
8
OBJECT
10
-960
20
869
30
0
11
-860
21
869
31
0
0
LINE
8
OBJECT
10
-860
20
869
30
0
11
-860
21
1001
31
0
0
LINE
8
OBJECT
10
-860
20
1001
30
0
11
-960
21
1001
31
0
0
LINE
8
OBJECT
10
-960
20
1001
30
0
11
-960
21
869
31
0
0
LINE
8
OBJECT
10
860
20
869
30
0
11
960
21
869
31
0
0
LINE
8
OBJECT
10
960
20
869
30
0
11
960
21
1001
31
0
0
LINE
8
OBJECT
10
960
20
1001
30
0
11
860
21
1001
31
0
0
LINE
8
OBJECT
10
860
20
1001
30
0
11
860
21
869
31
0
0
TEXT
8
TEXT
10
0
20
935
30
0
40
28
1
2단 · Ø232
0
LINE
8
OBJECT
10
-800
20
608
30
0
11
800
21
608
31
0
0
LINE
8
OBJECT
10
800
20
608
30
0
11
800
21
792
31
0
0
LINE
8
OBJECT
10
800
20
792
30
0
11
-800
21
792
31
0
0
LINE
8
OBJECT
10
-800
20
792
30
0
11
-800
21
608
31
0
0
LINE
8
CENTER
10
-1050
20
700
30
0
11
1050
21
700
31
0
0
LINE
8
OBJECT
10
-960
20
634
30
0
11
-860
21
634
31
0
0
LINE
8
OBJECT
10
-860
20
634
30
0
11
-860
21
766
31
0
0
LINE
8
OBJECT
10
-860
20
766
30
0
11
-960
21
766
31
0
0
LINE
8
OBJECT
10
-960
20
766
30
0
11
-960
21
634
31
0
0
LINE
8
OBJECT
10
860
20
634
30
0
11
960
21
634
31
0
0
LINE
8
OBJECT
10
960
20
634
30
0
11
960
21
766
31
0
0
LINE
8
OBJECT
10
960
20
766
30
0
11
860
21
766
31
0
0
LINE
8
OBJECT
10
860
20
766
30
0
11
860
21
634
31
0
0
TEXT
8
TEXT
10
0
20
700
30
0
40
28
1
3단 · Ø184
0
LINE
8
OBJECT
10
-800
20
390
30
0
11
800
21
390
31
0
0
LINE
8
OBJECT
10
800
20
390
30
0
11
800
21
600
31
0
0
LINE
8
OBJECT
10
800
20
600
30
0
11
-800
21
600
31
0
0
LINE
8
OBJECT
10
-800
20
600
30
0
11
-800
21
390
31
0
0
LINE
8
CENTER
10
-1050
20
495
30
0
11
1050
21
495
31
0
0
LINE
8
OBJECT
10
-960
20
429
30
0
11
-860
21
429
31
0
0
LINE
8
OBJECT
10
-860
20
429
30
0
11
-860
21
561
31
0
0
LINE
8
OBJECT
10
-860
20
561
30
0
11
-960
21
561
31
0
0
LINE
8
OBJECT
10
-960
20
561
30
0
11
-960
21
429
31
0
0
LINE
8
OBJECT
10
860
20
429
30
0
11
960
21
429
31
0
0
LINE
8
OBJECT
10
960
20
429
30
0
11
960
21
561
31
0
0
LINE
8
OBJECT
10
960
20
561
30
0
11
860
21
561
31
0
0
LINE
8
OBJECT
10
860
20
561
30
0
11
860
21
429
31
0
0
TEXT
8
TEXT
10
0
20
495
30
0
40
28
1
4단 · Ø210
0
LINE
8
DIM
10
-800
20
-160
30
0
11
-800
21
-105
31
0
0
LINE
8
DIM
10
800
20
-160
30
0
11
800
21
-105
31
0
0
LINE
8
DIM
10
-800
20
-130
30
0
11
800
21
-130
31
0
0
LINE
8
DIM
10
-800
20
-130
30
0
11
-788
21
-136
31
0
0
LINE
8
DIM
10
-800
20
-130
30
0
11
-788
21
-124
31
0
0
LINE
8
DIM
10
800
20
-130
30
0
11
788
21
-136
31
0
0
LINE
8
DIM
10
800
20
-130
30
0
11
788
21
-124
31
0
0
TEXT
8
DIM
10
0
20
-116
30
0
40
22
1
롤 몸통 1600
0
TEXT
8
TEXT
10
0
20
1410
30
0
40
30
1
정면도 · 프레임 높이 가정 1310
0
ENDSEC
0
EOF
