0
SECTION
2
HEADER
9
$ACADVER
1
AC1021
9
$INSUNITS
70
4
0
ENDSEC
0
SECTION
2
ENTITIES
0
CIRCLE
8
OBJECT
10
0
20
1210
30
0
40
78
0
CIRCLE
8
OBJECT
10
0
20
1210
30
0
40
30
0
LINE
8
CENTER
10
-128
20
1210
30
0
11
338
21
1210
31
0
0
TEXT
8
TEXT
10
438
20
1210
30
0
40
26
1
1단 중심 높이 1210 · 앞뒤 0
0
CIRCLE
8
OBJECT
10
0
20
935
30
0
40
116
0
CIRCLE
8
OBJECT
10
0
20
935
30
0
40
30
0
LINE
8
CENTER
10
-166
20
935
30
0
11
376
21
935
31
0
0
TEXT
8
TEXT
10
476
20
935
30
0
40
26
1
2단 중심 높이 935 · 앞뒤 -45
0
CIRCLE
8
OBJECT
10
0
20
700
30
0
40
92
0
CIRCLE
8
OBJECT
10
0
20
700
30
0
40
30
0
LINE
8
CENTER
10
-142
20
700
30
0
11
352
21
700
31
0
0
TEXT
8
TEXT
10
452
20
700
30
0
40
26
1
3단 중심 높이 700 · 앞뒤 30
0
CIRCLE
8
OBJECT
10
0
20
495
30
0
40
105
0
CIRCLE
8
OBJECT
10
0
20
495
30
0
40
30
0
LINE
8
CENTER
10
-155
20
495
30
0
11
365
21
495
31
0
0
TEXT
8
TEXT
10
465
20
495
30
0
40
26
1
4단 중심 높이 495 · 앞뒤 -90
0
LINE
8
OBJECT
10
933
20
588
30
0
11
1067
21
588
31
0
0
LINE
8
OBJECT
10
1067
20
588
30
0
11
1067
21
722
31
0
0
LINE
8
OBJECT
10
1067
20
722
30
0
11
933
21
722
31
0
0
LINE
8
OBJECT
10
933
20
722
30
0
11
933
21
588
31
0
0
CIRCLE
8
OBJECT
10
1000
20
655
30
0
40
48
0
CIRCLE
8
OBJECT
10
1000
20
655
30
0
40
39
0
CIRCLE
8
OBJECT
10
1000
20
655
30
0
40
34
0
CIRCLE
8
OBJECT
10
1000
20
655
30
0
40
25
0
CIRCLE
8
OBJECT
10
1036.5
20
655
30
0
40
6.2
0
CIRCLE
8
OBJECT
10
1029.5291
20
676.4542
30
0
40
6.2
0
CIRCLE
8
OBJECT
10
1011.2791
20
689.7136
30
0
40
6.2
0
CIRCLE
8
OBJECT
10
988.7209
20
689.7136
30
0
40
6.2
0
CIRCLE
8
OBJECT
10
970.4709
20
676.4542
30
0
40
6.2
0
CIRCLE
8
OBJECT
10
963.5
20
655
30
0
40
6.2
0
CIRCLE
8
OBJECT
10
970.4709
20
633.5458
30
0
40
6.2
0
CIRCLE
8
OBJECT
10
988.7209
20
620.2864
30
0
40
6.2
0
CIRCLE
8
OBJECT
10
1011.2791
20
620.2864
30
0
40
6.2
0
CIRCLE
8
OBJECT
10
1029.5291
20
633.5458
30
0
40
6.2
0
TEXT
8
TEXT
10
1000
20
815
30
0
40
25
1
축 지지부 설명용 단면
0
TEXT
8
TEXT
10
1000
20
855
30
0
40
24
1
베어링·공차 미확정
0
ENDSEC
0
EOF
