0
SECTION
2
HEADER
9
$ACADVER
1
AC1021
9
$INSUNITS
70
4
0
ENDSEC
0
SECTION
2
ENTITIES
0
LINE
8
OBJECT
10
-1218
20
0
30
0
11
-1142
21
0
31
0
0
LINE
8
OBJECT
10
-1142
20
0
30
0
11
-1142
21
1520
31
0
0
LINE
8
OBJECT
10
-1142
20
1520
30
0
11
-1218
21
1520
31
0
0
LINE
8
OBJECT
10
-1218
20
1520
30
0
11
-1218
21
0
31
0
0
LINE
8
OBJECT
10
1142
20
0
30
0
11
1218
21
0
31
0
0
LINE
8
OBJECT
10
1218
20
0
30
0
11
1218
21
1520
31
0
0
LINE
8
OBJECT
10
1218
20
1520
30
0
11
1142
21
1520
31
0
0
LINE
8
OBJECT
10
1142
20
1520
30
0
11
1142
21
0
31
0
0
LINE
8
OBJECT
10
-800
20
975
30
0
11
800
21
975
31
0
0
LINE
8
OBJECT
10
800
20
975
30
0
11
800
21
1205
31
0
0
LINE
8
OBJECT
10
800
20
1205
30
0
11
-800
21
1205
31
0
0
LINE
8
OBJECT
10
-800
20
1205
30
0
11
-800
21
975
31
0
0
LINE
8
OBJECT
10
-1295
20
1030
30
0
11
-1245
21
1030
31
0
0
LINE
8
OBJECT
10
-1245
20
1030
30
0
11
-1245
21
1150
31
0
0
LINE
8
OBJECT
10
-1245
20
1150
30
0
11
-1295
21
1150
31
0
0
LINE
8
OBJECT
10
-1295
20
1150
30
0
11
-1295
21
1030
31
0
0
LINE
8
CENTER
10
-800
20
1090
30
0
11
-1330
21
1090
31
0
0
LINE
8
OBJECT
10
1245
20
1030
30
0
11
1295
21
1030
31
0
0
LINE
8
OBJECT
10
1295
20
1030
30
0
11
1295
21
1150
31
0
0
LINE
8
OBJECT
10
1295
20
1150
30
0
11
1245
21
1150
31
0
0
LINE
8
OBJECT
10
1245
20
1150
30
0
11
1245
21
1030
31
0
0
LINE
8
CENTER
10
800
20
1090
30
0
11
1330
21
1090
31
0
0
TEXT
8
TEXT
10
0
20
1090
30
0
40
26
1
1단 롤 모듈
0
LINE
8
OBJECT
10
-800
20
857
30
0
11
800
21
857
31
0
0
LINE
8
OBJECT
10
800
20
857
30
0
11
800
21
1093
31
0
0
LINE
8
OBJECT
10
800
20
1093
30
0
11
-800
21
1093
31
0
0
LINE
8
OBJECT
10
-800
20
1093
30
0
11
-800
21
857
31
0
0
LINE
8
OBJECT
10
-1295
20
915
30
0
11
-1245
21
915
31
0
0
LINE
8
OBJECT
10
-1245
20
915
30
0
11
-1245
21
1035
31
0
0
LINE
8
OBJECT
10
-1245
20
1035
30
0
11
-1295
21
1035
31
0
0
LINE
8
OBJECT
10
-1295
20
1035
30
0
11
-1295
21
915
31
0
0
LINE
8
CENTER
10
-800
20
975
30
0
11
-1330
21
975
31
0
0
LINE
8
OBJECT
10
1245
20
915
30
0
11
1295
21
915
31
0
0
LINE
8
OBJECT
10
1295
20
915
30
0
11
1295
21
1035
31
0
0
LINE
8
OBJECT
10
1295
20
1035
30
0
11
1245
21
1035
31
0
0
LINE
8
OBJECT
10
1245
20
1035
30
0
11
1245
21
915
31
0
0
LINE
8
CENTER
10
800
20
975
30
0
11
1330
21
975
31
0
0
TEXT
8
TEXT
10
0
20
975
30
0
40
26
1
2단 롤 모듈
0
LINE
8
OBJECT
10
-800
20
750
30
0
11
800
21
750
31
0
0
LINE
8
OBJECT
10
800
20
750
30
0
11
800
21
960
31
0
0
LINE
8
OBJECT
10
800
20
960
30
0
11
-800
21
960
31
0
0
LINE
8
OBJECT
10
-800
20
960
30
0
11
-800
21
750
31
0
0
LINE
8
OBJECT
10
-1295
20
795
30
0
11
-1245
21
795
31
0
0
LINE
8
OBJECT
10
-1245
20
795
30
0
11
-1245
21
915
31
0
0
LINE
8
OBJECT
10
-1245
20
915
30
0
11
-1295
21
915
31
0
0
LINE
8
OBJECT
10
-1295
20
915
30
0
11
-1295
21
795
31
0
0
LINE
8
CENTER
10
-800
20
855
30
0
11
-1330
21
855
31
0
0
LINE
8
OBJECT
10
1245
20
795
30
0
11
1295
21
795
31
0
0
LINE
8
OBJECT
10
1295
20
795
30
0
11
1295
21
915
31
0
0
LINE
8
OBJECT
10
1295
20
915
30
0
11
1245
21
915
31
0
0
LINE
8
OBJECT
10
1245
20
915
30
0
11
1245
21
795
31
0
0
LINE
8
CENTER
10
800
20
855
30
0
11
1330
21
855
31
0
0
TEXT
8
TEXT
10
0
20
855
30
0
40
26
1
3단 롤 모듈
0
LINE
8
OBJECT
10
-800
20
625
30
0
11
800
21
625
31
0
0
LINE
8
OBJECT
10
800
20
625
30
0
11
800
21
865
31
0
0
LINE
8
OBJECT
10
800
20
865
30
0
11
-800
21
865
31
0
0
LINE
8
OBJECT
10
-800
20
865
30
0
11
-800
21
625
31
0
0
LINE
8
OBJECT
10
-1295
20
685
30
0
11
-1245
21
685
31
0
0
LINE
8
OBJECT
10
-1245
20
685
30
0
11
-1245
21
805
31
0
0
LINE
8
OBJECT
10
-1245
20
805
30
0
11
-1295
21
805
31
0
0
LINE
8
OBJECT
10
-1295
20
805
30
0
11
-1295
21
685
31
0
0
LINE
8
CENTER
10
-800
20
745
30
0
11
-1330
21
745
31
0
0
LINE
8
OBJECT
10
1245
20
685
30
0
11
1295
21
685
31
0
0
LINE
8
OBJECT
10
1295
20
685
30
0
11
1295
21
805
31
0
0
LINE
8
OBJECT
10
1295
20
805
30
0
11
1245
21
805
31
0
0
LINE
8
OBJECT
10
1245
20
805
30
0
11
1245
21
685
31
0
0
LINE
8
CENTER
10
800
20
745
30
0
11
1330
21
745
31
0
0
TEXT
8
TEXT
10
0
20
745
30
0
40
26
1
4단 롤 모듈
0
LINE
8
OBJECT
10
-800
20
508
30
0
11
800
21
508
31
0
0
LINE
8
OBJECT
10
800
20
508
30
0
11
800
21
592
31
0
0
LINE
8
OBJECT
10
800
20
592
30
0
11
-800
21
592
31
0
0
LINE
8
OBJECT
10
-800
20
592
30
0
11
-800
21
508
31
0
0
LINE
8
OBJECT
10
-1295
20
490
30
0
11
-1245
21
490
31
0
0
LINE
8
OBJECT
10
-1245
20
490
30
0
11
-1245
21
610
31
0
0
LINE
8
OBJECT
10
-1245
20
610
30
0
11
-1295
21
610
31
0
0
LINE
8
OBJECT
10
-1295
20
610
30
0
11
-1295
21
490
31
0
0
LINE
8
CENTER
10
-800
20
550
30
0
11
-1330
21
550
31
0
0
LINE
8
OBJECT
10
1245
20
490
30
0
11
1295
21
490
31
0
0
LINE
8
OBJECT
10
1295
20
490
30
0
11
1295
21
610
31
0
0
LINE
8
OBJECT
10
1295
20
610
30
0
11
1245
21
610
31
0
0
LINE
8
OBJECT
10
1245
20
610
30
0
11
1245
21
490
31
0
0
LINE
8
CENTER
10
800
20
550
30
0
11
1330
21
550
31
0
0
TEXT
8
TEXT
10
0
20
550
30
0
40
26
1
5단 롤 모듈
0
TEXT
8
TEXT
10
0
20
1820
30
0
40
30
1
롤 → 단부·축 → 지지 블록 → 프레임
0
ENDSEC
0
EOF
