0
SECTION
2
HEADER
9
$ACADVER
1
AC1021
9
$INSUNITS
70
4
0
ENDSEC
0
SECTION
2
ENTITIES
0
LINE
8
OBJECT
10
-948
20
0
30
0
11
-872
21
0
31
0
0
LINE
8
OBJECT
10
-872
20
0
30
0
11
-872
21
1520
31
0
0
LINE
8
OBJECT
10
-872
20
1520
30
0
11
-948
21
1520
31
0
0
LINE
8
OBJECT
10
-948
20
1520
30
0
11
-948
21
0
31
0
0
LINE
8
OBJECT
10
872
20
0
30
0
11
948
21
0
31
0
0
LINE
8
OBJECT
10
948
20
0
30
0
11
948
21
1520
31
0
0
LINE
8
OBJECT
10
948
20
1520
30
0
11
872
21
1520
31
0
0
LINE
8
OBJECT
10
872
20
1520
30
0
11
872
21
0
31
0
0
LINE
8
OBJECT
10
-910
20
70
30
0
11
910
21
70
31
0
0
LINE
8
OBJECT
10
910
20
70
30
0
11
910
21
110
31
0
0
LINE
8
OBJECT
10
910
20
110
30
0
11
-910
21
110
31
0
0
LINE
8
OBJECT
10
-910
20
110
30
0
11
-910
21
70
31
0
0
LINE
8
OBJECT
10
-910
20
1440
30
0
11
910
21
1440
31
0
0
LINE
8
OBJECT
10
910
20
1440
30
0
11
910
21
1480
31
0
0
LINE
8
OBJECT
10
910
20
1480
30
0
11
-910
21
1480
31
0
0
LINE
8
OBJECT
10
-910
20
1480
30
0
11
-910
21
1440
31
0
0
LINE
8
OBJECT
10
-800
20
1245
30
0
11
800
21
1245
31
0
0
LINE
8
OBJECT
10
800
20
1245
30
0
11
800
21
1475
31
0
0
LINE
8
OBJECT
10
800
20
1475
30
0
11
-800
21
1475
31
0
0
LINE
8
OBJECT
10
-800
20
1475
30
0
11
-800
21
1245
31
0
0
LINE
8
CENTER
10
-1050
20
1360
30
0
11
1050
21
1360
31
0
0
LINE
8
OBJECT
10
-960
20
1294
30
0
11
-860
21
1294
31
0
0
LINE
8
OBJECT
10
-860
20
1294
30
0
11
-860
21
1426
31
0
0
LINE
8
OBJECT
10
-860
20
1426
30
0
11
-960
21
1426
31
0
0
LINE
8
OBJECT
10
-960
20
1426
30
0
11
-960
21
1294
31
0
0
LINE
8
OBJECT
10
860
20
1294
30
0
11
960
21
1294
31
0
0
LINE
8
OBJECT
10
960
20
1294
30
0
11
960
21
1426
31
0
0
LINE
8
OBJECT
10
960
20
1426
30
0
11
860
21
1426
31
0
0
LINE
8
OBJECT
10
860
20
1426
30
0
11
860
21
1294
31
0
0
TEXT
8
TEXT
10
0
20
1360
30
0
40
28
1
1단 · Ø230
0
LINE
8
OBJECT
10
-800
20
992
30
0
11
800
21
992
31
0
0
LINE
8
OBJECT
10
800
20
992
30
0
11
800
21
1228
31
0
0
LINE
8
OBJECT
10
800
20
1228
30
0
11
-800
21
1228
31
0
0
LINE
8
OBJECT
10
-800
20
1228
30
0
11
-800
21
992
31
0
0
LINE
8
CENTER
10
-1050
20
1110
30
0
11
1050
21
1110
31
0
0
LINE
8
OBJECT
10
-960
20
1044
30
0
11
-860
21
1044
31
0
0
LINE
8
OBJECT
10
-860
20
1044
30
0
11
-860
21
1176
31
0
0
LINE
8
OBJECT
10
-860
20
1176
30
0
11
-960
21
1176
31
0
0
LINE
8
OBJECT
10
-960
20
1176
30
0
11
-960
21
1044
31
0
0
LINE
8
OBJECT
10
860
20
1044
30
0
11
960
21
1044
31
0
0
LINE
8
OBJECT
10
960
20
1044
30
0
11
960
21
1176
31
0
0
LINE
8
OBJECT
10
960
20
1176
30
0
11
860
21
1176
31
0
0
LINE
8
OBJECT
10
860
20
1176
30
0
11
860
21
1044
31
0
0
TEXT
8
TEXT
10
0
20
1110
30
0
40
28
1
2단 · Ø236
0
LINE
8
OBJECT
10
-800
20
750
30
0
11
800
21
750
31
0
0
LINE
8
OBJECT
10
800
20
750
30
0
11
800
21
960
31
0
0
LINE
8
OBJECT
10
800
20
960
30
0
11
-800
21
960
31
0
0
LINE
8
OBJECT
10
-800
20
960
30
0
11
-800
21
750
31
0
0
LINE
8
CENTER
10
-1050
20
855
30
0
11
1050
21
855
31
0
0
LINE
8
OBJECT
10
-960
20
789
30
0
11
-860
21
789
31
0
0
LINE
8
OBJECT
10
-860
20
789
30
0
11
-860
21
921
31
0
0
LINE
8
OBJECT
10
-860
20
921
30
0
11
-960
21
921
31
0
0
LINE
8
OBJECT
10
-960
20
921
30
0
11
-960
21
789
31
0
0
LINE
8
OBJECT
10
860
20
789
30
0
11
960
21
789
31
0
0
LINE
8
OBJECT
10
960
20
789
30
0
11
960
21
921
31
0
0
LINE
8
OBJECT
10
960
20
921
30
0
11
860
21
921
31
0
0
LINE
8
OBJECT
10
860
20
921
30
0
11
860
21
789
31
0
0
TEXT
8
TEXT
10
0
20
855
30
0
40
28
1
3단 · Ø210
0
LINE
8
OBJECT
10
-800
20
490
30
0
11
800
21
490
31
0
0
LINE
8
OBJECT
10
800
20
490
30
0
11
800
21
730
31
0
0
LINE
8
OBJECT
10
800
20
730
30
0
11
-800
21
730
31
0
0
LINE
8
OBJECT
10
-800
20
730
30
0
11
-800
21
490
31
0
0
LINE
8
CENTER
10
-1050
20
610
30
0
11
1050
21
610
31
0
0
LINE
8
OBJECT
10
-960
20
544
30
0
11
-860
21
544
31
0
0
LINE
8
OBJECT
10
-860
20
544
30
0
11
-860
21
676
31
0
0
LINE
8
OBJECT
10
-860
20
676
30
0
11
-960
21
676
31
0
0
LINE
8
OBJECT
10
-960
20
676
30
0
11
-960
21
544
31
0
0
LINE
8
OBJECT
10
860
20
544
30
0
11
960
21
544
31
0
0
LINE
8
OBJECT
10
960
20
544
30
0
11
960
21
676
31
0
0
LINE
8
OBJECT
10
960
20
676
30
0
11
860
21
676
31
0
0
LINE
8
OBJECT
10
860
20
676
30
0
11
860
21
544
31
0
0
TEXT
8
TEXT
10
0
20
610
30
0
40
28
1
4단 · Ø240
0
LINE
8
OBJECT
10
-800
20
238
30
0
11
800
21
238
31
0
0
LINE
8
OBJECT
10
800
20
238
30
0
11
800
21
322
31
0
0
LINE
8
OBJECT
10
800
20
322
30
0
11
-800
21
322
31
0
0
LINE
8
OBJECT
10
-800
20
322
30
0
11
-800
21
238
31
0
0
LINE
8
CENTER
10
-1050
20
280
30
0
11
1050
21
280
31
0
0
LINE
8
OBJECT
10
-960
20
214
30
0
11
-860
21
214
31
0
0
LINE
8
OBJECT
10
-860
20
214
30
0
11
-860
21
346
31
0
0
LINE
8
OBJECT
10
-860
20
346
30
0
11
-960
21
346
31
0
0
LINE
8
OBJECT
10
-960
20
346
30
0
11
-960
21
214
31
0
0
LINE
8
OBJECT
10
860
20
214
30
0
11
960
21
214
31
0
0
LINE
8
OBJECT
10
960
20
214
30
0
11
960
21
346
31
0
0
LINE
8
OBJECT
10
960
20
346
30
0
11
860
21
346
31
0
0
LINE
8
OBJECT
10
860
20
346
30
0
11
860
21
214
31
0
0
TEXT
8
TEXT
10
0
20
280
30
0
40
28
1
5단 · Ø84
0
LINE
8
DIM
10
-800
20
-160
30
0
11
-800
21
-105
31
0
0
LINE
8
DIM
10
800
20
-160
30
0
11
800
21
-105
31
0
0
LINE
8
DIM
10
-800
20
-130
30
0
11
800
21
-130
31
0
0
LINE
8
DIM
10
-800
20
-130
30
0
11
-788
21
-136
31
0
0
LINE
8
DIM
10
-800
20
-130
30
0
11
-788
21
-124
31
0
0
LINE
8
DIM
10
800
20
-130
30
0
11
788
21
-136
31
0
0
LINE
8
DIM
10
800
20
-130
30
0
11
788
21
-124
31
0
0
TEXT
8
DIM
10
0
20
-116
30
0
40
22
1
롤 몸통 1600
0
TEXT
8
TEXT
10
0
20
1620
30
0
40
30
1
정면도 · 프레임 높이 가정 1520
0
ENDSEC
0
EOF
