0
SECTION
2
HEADER
9
$ACADVER
1
AC1021
9
$INSUNITS
70
4
0
ENDSEC
0
SECTION
2
ENTITIES
0
CIRCLE
8
OBJECT
10
0
20
1360
30
0
40
115
0
CIRCLE
8
OBJECT
10
0
20
1360
30
0
40
30
0
LINE
8
CENTER
10
-165
20
1360
30
0
11
375
21
1360
31
0
0
TEXT
8
TEXT
10
475
20
1360
30
0
40
26
1
1단 중심 높이 1360 · 앞뒤 0
0
CIRCLE
8
OBJECT
10
0
20
1110
30
0
40
118
0
CIRCLE
8
OBJECT
10
0
20
1110
30
0
40
30
0
LINE
8
CENTER
10
-168
20
1110
30
0
11
378
21
1110
31
0
0
TEXT
8
TEXT
10
478
20
1110
30
0
40
26
1
2단 중심 높이 1110 · 앞뒤 0
0
CIRCLE
8
OBJECT
10
0
20
855
30
0
40
105
0
CIRCLE
8
OBJECT
10
0
20
855
30
0
40
30
0
LINE
8
CENTER
10
-155
20
855
30
0
11
365
21
855
31
0
0
TEXT
8
TEXT
10
465
20
855
30
0
40
26
1
3단 중심 높이 855 · 앞뒤 -110
0
CIRCLE
8
OBJECT
10
0
20
610
30
0
40
120
0
CIRCLE
8
OBJECT
10
0
20
610
30
0
40
30
0
LINE
8
CENTER
10
-170
20
610
30
0
11
380
21
610
31
0
0
TEXT
8
TEXT
10
480
20
610
30
0
40
26
1
4단 중심 높이 610 · 앞뒤 0
0
CIRCLE
8
OBJECT
10
0
20
280
30
0
40
42
0
CIRCLE
8
OBJECT
10
0
20
280
30
0
40
30
0
LINE
8
CENTER
10
-92
20
280
30
0
11
302
21
280
31
0
0
TEXT
8
TEXT
10
402
20
280
30
0
40
26
1
5단 중심 높이 280 · 앞뒤 60
0
LINE
8
OBJECT
10
933
20
693
30
0
11
1067
21
693
31
0
0
LINE
8
OBJECT
10
1067
20
693
30
0
11
1067
21
827
31
0
0
LINE
8
OBJECT
10
1067
20
827
30
0
11
933
21
827
31
0
0
LINE
8
OBJECT
10
933
20
827
30
0
11
933
21
693
31
0
0
CIRCLE
8
OBJECT
10
1000
20
760
30
0
40
48
0
CIRCLE
8
OBJECT
10
1000
20
760
30
0
40
39
0
CIRCLE
8
OBJECT
10
1000
20
760
30
0
40
34
0
CIRCLE
8
OBJECT
10
1000
20
760
30
0
40
25
0
CIRCLE
8
OBJECT
10
1036.5
20
760
30
0
40
6.2
0
CIRCLE
8
OBJECT
10
1029.5291
20
781.4542
30
0
40
6.2
0
CIRCLE
8
OBJECT
10
1011.2791
20
794.7136
30
0
40
6.2
0
CIRCLE
8
OBJECT
10
988.7209
20
794.7136
30
0
40
6.2
0
CIRCLE
8
OBJECT
10
970.4709
20
781.4542
30
0
40
6.2
0
CIRCLE
8
OBJECT
10
963.5
20
760
30
0
40
6.2
0
CIRCLE
8
OBJECT
10
970.4709
20
738.5458
30
0
40
6.2
0
CIRCLE
8
OBJECT
10
988.7209
20
725.2864
30
0
40
6.2
0
CIRCLE
8
OBJECT
10
1011.2791
20
725.2864
30
0
40
6.2
0
CIRCLE
8
OBJECT
10
1029.5291
20
738.5458
30
0
40
6.2
0
TEXT
8
TEXT
10
1000
20
920
30
0
40
25
1
축 지지부 설명용 단면
0
TEXT
8
TEXT
10
1000
20
960
30
0
40
24
1
베어링·공차 미확정
0
ENDSEC
0
EOF
