0
SECTION
2
HEADER
9
$ACADVER
1
AC1021
9
$INSUNITS
70
4
0
ENDSEC
0
SECTION
2
ENTITIES
0
LINE
8
OBJECT
10
-700
20
130
30
0
11
700
21
130
31
0
0
LINE
8
OBJECT
10
700
20
130
30
0
11
700
21
310
31
0
0
LINE
8
OBJECT
10
700
20
310
30
0
11
-700
21
310
31
0
0
LINE
8
OBJECT
10
-700
20
310
30
0
11
-700
21
130
31
0
0
TEXT
8
TEXT
10
0
20
355
30
0
40
22
1
01 표면층 / 사선 홈 또는 표면 마감
0
LINE
8
OBJECT
10
-700
20
-73
30
0
11
700
21
-73
31
0
0
LINE
8
OBJECT
10
700
20
-73
30
0
11
700
21
73
31
0
0
LINE
8
OBJECT
10
700
20
73
30
0
11
-700
21
73
31
0
0
LINE
8
OBJECT
10
-700
20
73
30
0
11
-700
21
-73
31
0
0
LINE
8
HATCH
10
-700
20
-57
30
0
11
700
21
-57
31
0
0
LINE
8
HATCH
10
700
20
-57
30
0
11
700
21
57
31
0
0
LINE
8
HATCH
10
700
20
57
30
0
11
-700
21
57
31
0
0
LINE
8
HATCH
10
-700
20
57
30
0
11
-700
21
-57
31
0
0
LINE
8
HATCH
10
-700
20
-73
30
0
11
-700
21
-73
31
0
0
LINE
8
HATCH
10
-691
20
-57
30
0
11
-675
21
-73
31
0
0
LINE
8
HATCH
10
-666
20
-57
30
0
11
-650
21
-73
31
0
0
LINE
8
HATCH
10
-641
20
-57
30
0
11
-625
21
-73
31
0
0
LINE
8
HATCH
10
-616
20
-57
30
0
11
-600
21
-73
31
0
0
LINE
8
HATCH
10
-591
20
-57
30
0
11
-575
21
-73
31
0
0
LINE
8
HATCH
10
-566
20
-57
30
0
11
-550
21
-73
31
0
0
LINE
8
HATCH
10
-541
20
-57
30
0
11
-525
21
-73
31
0
0
LINE
8
HATCH
10
-516
20
-57
30
0
11
-500
21
-73
31
0
0
LINE
8
HATCH
10
-491
20
-57
30
0
11
-475
21
-73
31
0
0
LINE
8
HATCH
10
-466
20
-57
30
0
11
-450
21
-73
31
0
0
LINE
8
HATCH
10
-441
20
-57
30
0
11
-425
21
-73
31
0
0
LINE
8
HATCH
10
-416
20
-57
30
0
11
-400
21
-73
31
0
0
LINE
8
HATCH
10
-391
20
-57
30
0
11
-375
21
-73
31
0
0
LINE
8
HATCH
10
-366
20
-57
30
0
11
-350
21
-73
31
0
0
LINE
8
HATCH
10
-341
20
-57
30
0
11
-325
21
-73
31
0
0
LINE
8
HATCH
10
-316
20
-57
30
0
11
-300
21
-73
31
0
0
LINE
8
HATCH
10
-291
20
-57
30
0
11
-275
21
-73
31
0
0
LINE
8
HATCH
10
-266
20
-57
30
0
11
-250
21
-73
31
0
0
LINE
8
HATCH
10
-241
20
-57
30
0
11
-225
21
-73
31
0
0
LINE
8
HATCH
10
-216
20
-57
30
0
11
-200
21
-73
31
0
0
LINE
8
HATCH
10
-191
20
-57
30
0
11
-175
21
-73
31
0
0
LINE
8
HATCH
10
-166
20
-57
30
0
11
-150
21
-73
31
0
0
LINE
8
HATCH
10
-141
20
-57
30
0
11
-125
21
-73
31
0
0
LINE
8
HATCH
10
-116
20
-57
30
0
11
-100
21
-73
31
0
0
LINE
8
HATCH
10
-91
20
-57
30
0
11
-75
21
-73
31
0
0
LINE
8
HATCH
10
-66
20
-57
30
0
11
-50
21
-73
31
0
0
LINE
8
HATCH
10
-41
20
-57
30
0
11
-25
21
-73
31
0
0
LINE
8
HATCH
10
-16
20
-57
30
0
11
0
21
-73
31
0
0
LINE
8
HATCH
10
9
20
-57
30
0
11
25
21
-73
31
0
0
LINE
8
HATCH
10
34
20
-57
30
0
11
50
21
-73
31
0
0
LINE
8
HATCH
10
59
20
-57
30
0
11
75
21
-73
31
0
0
LINE
8
HATCH
10
84
20
-57
30
0
11
100
21
-73
31
0
0
LINE
8
HATCH
10
109
20
-57
30
0
11
125
21
-73
31
0
0
LINE
8
HATCH
10
134
20
-57
30
0
11
150
21
-73
31
0
0
LINE
8
HATCH
10
159
20
-57
30
0
11
175
21
-73
31
0
0
LINE
8
HATCH
10
184
20
-57
30
0
11
200
21
-73
31
0
0
LINE
8
HATCH
10
209
20
-57
30
0
11
225
21
-73
31
0
0
LINE
8
HATCH
10
234
20
-57
30
0
11
250
21
-73
31
0
0
LINE
8
HATCH
10
259
20
-57
30
0
11
275
21
-73
31
0
0
LINE
8
HATCH
10
284
20
-57
30
0
11
300
21
-73
31
0
0
LINE
8
HATCH
10
309
20
-57
30
0
11
325
21
-73
31
0
0
LINE
8
HATCH
10
334
20
-57
30
0
11
350
21
-73
31
0
0
LINE
8
HATCH
10
359
20
-57
30
0
11
375
21
-73
31
0
0
LINE
8
HATCH
10
384
20
-57
30
0
11
400
21
-73
31
0
0
LINE
8
HATCH
10
409
20
-57
30
0
11
425
21
-73
31
0
0
LINE
8
HATCH
10
434
20
-57
30
0
11
450
21
-73
31
0
0
LINE
8
HATCH
10
459
20
-57
30
0
11
475
21
-73
31
0
0
LINE
8
HATCH
10
484
20
-57
30
0
11
500
21
-73
31
0
0
LINE
8
HATCH
10
509
20
-57
30
0
11
525
21
-73
31
0
0
LINE
8
HATCH
10
534
20
-57
30
0
11
550
21
-73
31
0
0
LINE
8
HATCH
10
559
20
-57
30
0
11
575
21
-73
31
0
0
LINE
8
HATCH
10
584
20
-57
30
0
11
600
21
-73
31
0
0
LINE
8
HATCH
10
609
20
-57
30
0
11
625
21
-73
31
0
0
LINE
8
HATCH
10
634
20
-57
30
0
11
650
21
-73
31
0
0
LINE
8
HATCH
10
659
20
-57
30
0
11
675
21
-73
31
0
0
LINE
8
HATCH
10
684
20
-57
30
0
11
700
21
-73
31
0
0
LINE
8
HATCH
10
-700
20
57
30
0
11
-700
21
57
31
0
0
LINE
8
HATCH
10
-691
20
73
30
0
11
-675
21
57
31
0
0
LINE
8
HATCH
10
-666
20
73
30
0
11
-650
21
57
31
0
0
LINE
8
HATCH
10
-641
20
73
30
0
11
-625
21
57
31
0
0
LINE
8
HATCH
10
-616
20
73
30
0
11
-600
21
57
31
0
0
LINE
8
HATCH
10
-591
20
73
30
0
11
-575
21
57
31
0
0
LINE
8
HATCH
10
-566
20
73
30
0
11
-550
21
57
31
0
0
LINE
8
HATCH
10
-541
20
73
30
0
11
-525
21
57
31
0
0
LINE
8
HATCH
10
-516
20
73
30
0
11
-500
21
57
31
0
0
LINE
8
HATCH
10
-491
20
73
30
0
11
-475
21
57
31
0
0
LINE
8
HATCH
10
-466
20
73
30
0
11
-450
21
57
31
0
0
LINE
8
HATCH
10
-441
20
73
30
0
11
-425
21
57
31
0
0
LINE
8
HATCH
10
-416
20
73
30
0
11
-400
21
57
31
0
0
LINE
8
HATCH
10
-391
20
73
30
0
11
-375
21
57
31
0
0
LINE
8
HATCH
10
-366
20
73
30
0
11
-350
21
57
31
0
0
LINE
8
HATCH
10
-341
20
73
30
0
11
-325
21
57
31
0
0
LINE
8
HATCH
10
-316
20
73
30
0
11
-300
21
57
31
0
0
LINE
8
HATCH
10
-291
20
73
30
0
11
-275
21
57
31
0
0
LINE
8
HATCH
10
-266
20
73
30
0
11
-250
21
57
31
0
0
LINE
8
HATCH
10
-241
20
73
30
0
11
-225
21
57
31
0
0
LINE
8
HATCH
10
-216
20
73
30
0
11
-200
21
57
31
0
0
LINE
8
HATCH
10
-191
20
73
30
0
11
-175
21
57
31
0
0
LINE
8
HATCH
10
-166
20
73
30
0
11
-150
21
57
31
0
0
LINE
8
HATCH
10
-141
20
73
30
0
11
-125
21
57
31
0
0
LINE
8
HATCH
10
-116
20
73
30
0
11
-100
21
57
31
0
0
LINE
8
HATCH
10
-91
20
73
30
0
11
-75
21
57
31
0
0
LINE
8
HATCH
10
-66
20
73
30
0
11
-50
21
57
31
0
0
LINE
8
HATCH
10
-41
20
73
30
0
11
-25
21
57
31
0
0
LINE
8
HATCH
10
-16
20
73
30
0
11
0
21
57
31
0
0
LINE
8
HATCH
10
9
20
73
30
0
11
25
21
57
31
0
0
LINE
8
HATCH
10
34
20
73
30
0
11
50
21
57
31
0
0
LINE
8
HATCH
10
59
20
73
30
0
11
75
21
57
31
0
0
LINE
8
HATCH
10
84
20
73
30
0
11
100
21
57
31
0
0
LINE
8
HATCH
10
109
20
73
30
0
11
125
21
57
31
0
0
LINE
8
HATCH
10
134
20
73
30
0
11
150
21
57
31
0
0
LINE
8
HATCH
10
159
20
73
30
0
11
175
21
57
31
0
0
LINE
8
HATCH
10
184
20
73
30
0
11
200
21
57
31
0
0
LINE
8
HATCH
10
209
20
73
30
0
11
225
21
57
31
0
0
LINE
8
HATCH
10
234
20
73
30
0
11
250
21
57
31
0
0
LINE
8
HATCH
10
259
20
73
30
0
11
275
21
57
31
0
0
LINE
8
HATCH
10
284
20
73
30
0
11
300
21
57
31
0
0
LINE
8
HATCH
10
309
20
73
30
0
11
325
21
57
31
0
0
LINE
8
HATCH
10
334
20
73
30
0
11
350
21
57
31
0
0
LINE
8
HATCH
10
359
20
73
30
0
11
375
21
57
31
0
0
LINE
8
HATCH
10
384
20
73
30
0
11
400
21
57
31
0
0
LINE
8
HATCH
10
409
20
73
30
0
11
425
21
57
31
0
0
LINE
8
HATCH
10
434
20
73
30
0
11
450
21
57
31
0
0
LINE
8
HATCH
10
459
20
73
30
0
11
475
21
57
31
0
0
LINE
8
HATCH
10
484
20
73
30
0
11
500
21
57
31
0
0
LINE
8
HATCH
10
509
20
73
30
0
11
525
21
57
31
0
0
LINE
8
HATCH
10
534
20
73
30
0
11
550
21
57
31
0
0
LINE
8
HATCH
10
559
20
73
30
0
11
575
21
57
31
0
0
LINE
8
HATCH
10
584
20
73
30
0
11
600
21
57
31
0
0
LINE
8
HATCH
10
609
20
73
30
0
11
625
21
57
31
0
0
LINE
8
HATCH
10
634
20
73
30
0
11
650
21
57
31
0
0
LINE
8
HATCH
10
659
20
73
30
0
11
675
21
57
31
0
0
LINE
8
HATCH
10
684
20
73
30
0
11
700
21
57
31
0
0
TEXT
8
TEXT
10
0
20
-115
30
0
40
22
1
02 내부 심관 (가정)
0
LINE
8
OBJECT
10
-828
20
-73
30
0
11
-812
21
-73
31
0
0
LINE
8
OBJECT
10
-812
20
-73
30
0
11
-812
21
73
31
0
0
LINE
8
OBJECT
10
-812
20
73
30
0
11
-828
21
73
31
0
0
LINE
8
OBJECT
10
-828
20
73
30
0
11
-828
21
-73
31
0
0
LINE
8
OBJECT
10
-940
20
0
30
0
11
-940
21
-33
31
0
0
LINE
8
OBJECT
10
-940
20
-33
30
0
11
-944
21
-35.5
31
0
0
LINE
8
OBJECT
10
-944
20
-35.5
30
0
11
-974
21
-35.5
31
0
0
LINE
8
OBJECT
10
-974
20
-35.5
30
0
11
-979
21
-30
31
0
0
LINE
8
OBJECT
10
-979
20
-30
30
0
11
-1046.4
21
-30
31
0
0
LINE
8
OBJECT
10
-1046.4
20
-30
30
0
11
-1050.4
21
-25
31
0
0
LINE
8
OBJECT
10
-1050.4
20
-25
30
0
11
-1099.6
21
-25
31
0
0
LINE
8
OBJECT
10
-1099.6
20
-25
30
0
11
-1102.6
21
-19.5
31
0
0
LINE
8
OBJECT
10
-1102.6
20
-19.5
30
0
11
-1127
21
-19.5
31
0
0
LINE
8
OBJECT
10
-1127
20
-19.5
30
0
11
-1130
21
-17.25
31
0
0
LINE
8
OBJECT
10
-1130
20
-17.25
30
0
11
-1130
21
0
31
0
0
LINE
8
OBJECT
10
-940
20
0
30
0
11
-940
21
33
31
0
0
LINE
8
OBJECT
10
-940
20
33
30
0
11
-944
21
35.5
31
0
0
LINE
8
OBJECT
10
-944
20
35.5
30
0
11
-974
21
35.5
31
0
0
LINE
8
OBJECT
10
-974
20
35.5
30
0
11
-979
21
30
31
0
0
LINE
8
OBJECT
10
-979
20
30
30
0
11
-1046.4
21
30
31
0
0
LINE
8
OBJECT
10
-1046.4
20
30
30
0
11
-1050.4
21
25
31
0
0
LINE
8
OBJECT
10
-1050.4
20
25
30
0
11
-1099.6
21
25
31
0
0
LINE
8
OBJECT
10
-1099.6
20
25
30
0
11
-1102.6
21
19.5
31
0
0
LINE
8
OBJECT
10
-1102.6
20
19.5
30
0
11
-1127
21
19.5
31
0
0
LINE
8
OBJECT
10
-1127
20
19.5
30
0
11
-1130
21
17.25
31
0
0
LINE
8
OBJECT
10
-1130
20
17.25
30
0
11
-1130
21
0
31
0
0
LINE
8
CENTER
10
-700
20
0
30
0
11
-940
21
0
31
0
0
TEXT
8
TEXT
10
-850
20
-133
30
0
40
22
1
03 단부 / 04 단차 축
0
LINE
8
OBJECT
10
812
20
-73
30
0
11
828
21
-73
31
0
0
LINE
8
OBJECT
10
828
20
-73
30
0
11
828
21
73
31
0
0
LINE
8
OBJECT
10
828
20
73
30
0
11
812
21
73
31
0
0
LINE
8
OBJECT
10
812
20
73
30
0
11
812
21
-73
31
0
0
LINE
8
OBJECT
10
940
20
0
30
0
11
940
21
-33
31
0
0
LINE
8
OBJECT
10
940
20
-33
30
0
11
944
21
-35.5
31
0
0
LINE
8
OBJECT
10
944
20
-35.5
30
0
11
974
21
-35.5
31
0
0
LINE
8
OBJECT
10
974
20
-35.5
30
0
11
979
21
-30
31
0
0
LINE
8
OBJECT
10
979
20
-30
30
0
11
1046.4
21
-30
31
0
0
LINE
8
OBJECT
10
1046.4
20
-30
30
0
11
1050.4
21
-25
31
0
0
LINE
8
OBJECT
10
1050.4
20
-25
30
0
11
1099.6
21
-25
31
0
0
LINE
8
OBJECT
10
1099.6
20
-25
30
0
11
1102.6
21
-19.5
31
0
0
LINE
8
OBJECT
10
1102.6
20
-19.5
30
0
11
1127
21
-19.5
31
0
0
LINE
8
OBJECT
10
1127
20
-19.5
30
0
11
1130
21
-17.25
31
0
0
LINE
8
OBJECT
10
1130
20
-17.25
30
0
11
1130
21
0
31
0
0
LINE
8
OBJECT
10
940
20
0
30
0
11
940
21
33
31
0
0
LINE
8
OBJECT
10
940
20
33
30
0
11
944
21
35.5
31
0
0
LINE
8
OBJECT
10
944
20
35.5
30
0
11
974
21
35.5
31
0
0
LINE
8
OBJECT
10
974
20
35.5
30
0
11
979
21
30
31
0
0
LINE
8
OBJECT
10
979
20
30
30
0
11
1046.4
21
30
31
0
0
LINE
8
OBJECT
10
1046.4
20
30
30
0
11
1050.4
21
25
31
0
0
LINE
8
OBJECT
10
1050.4
20
25
30
0
11
1099.6
21
25
31
0
0
LINE
8
OBJECT
10
1099.6
20
25
30
0
11
1102.6
21
19.5
31
0
0
LINE
8
OBJECT
10
1102.6
20
19.5
30
0
11
1127
21
19.5
31
0
0
LINE
8
OBJECT
10
1127
20
19.5
30
0
11
1130
21
17.25
31
0
0
LINE
8
OBJECT
10
1130
20
17.25
30
0
11
1130
21
0
31
0
0
LINE
8
CENTER
10
700
20
0
30
0
11
940
21
0
31
0
0
TEXT
8
TEXT
10
850
20
-133
30
0
40
22
1
03 단부 / 04 단차 축
0
ENDSEC
0
EOF
