0
SECTION
2
HEADER
9
$ACADVER
1
AC1021
9
$INSUNITS
70
4
0
ENDSEC
0
SECTION
2
ENTITIES
0
LINE
8
OBJECT
10
0
20
0
30
0
11
0
21
-33
31
0
0
LINE
8
OBJECT
10
0
20
-33
30
0
11
-4
21
-35.5
31
0
0
LINE
8
OBJECT
10
-4
20
-35.5
30
0
11
-34
21
-35.5
31
0
0
LINE
8
OBJECT
10
-34
20
-35.5
30
0
11
-39
21
-30
31
0
0
LINE
8
OBJECT
10
-39
20
-30
30
0
11
-106.4
21
-30
31
0
0
LINE
8
OBJECT
10
-106.4
20
-30
30
0
11
-110.4
21
-25
31
0
0
LINE
8
OBJECT
10
-110.4
20
-25
30
0
11
-159.6
21
-25
31
0
0
LINE
8
OBJECT
10
-159.6
20
-25
30
0
11
-162.6
21
-19.5
31
0
0
LINE
8
OBJECT
10
-162.6
20
-19.5
30
0
11
-187
21
-19.5
31
0
0
LINE
8
OBJECT
10
-187
20
-19.5
30
0
11
-190
21
-17.25
31
0
0
LINE
8
OBJECT
10
-190
20
-17.25
30
0
11
-190
21
0
31
0
0
LINE
8
OBJECT
10
0
20
0
30
0
11
0
21
33
31
0
0
LINE
8
OBJECT
10
0
20
33
30
0
11
-4
21
35.5
31
0
0
LINE
8
OBJECT
10
-4
20
35.5
30
0
11
-34
21
35.5
31
0
0
LINE
8
OBJECT
10
-34
20
35.5
30
0
11
-39
21
30
31
0
0
LINE
8
OBJECT
10
-39
20
30
30
0
11
-106.4
21
30
31
0
0
LINE
8
OBJECT
10
-106.4
20
30
30
0
11
-110.4
21
25
31
0
0
LINE
8
OBJECT
10
-110.4
20
25
30
0
11
-159.6
21
25
31
0
0
LINE
8
OBJECT
10
-159.6
20
25
30
0
11
-162.6
21
19.5
31
0
0
LINE
8
OBJECT
10
-162.6
20
19.5
30
0
11
-187
21
19.5
31
0
0
LINE
8
OBJECT
10
-187
20
19.5
30
0
11
-190
21
17.25
31
0
0
LINE
8
OBJECT
10
-190
20
17.25
30
0
11
-190
21
0
31
0
0
LINE
8
OBJECT
10
0
20
0
30
0
11
0
21
-33
31
0
0
LINE
8
OBJECT
10
0
20
-33
30
0
11
4
21
-35.5
31
0
0
LINE
8
OBJECT
10
4
20
-35.5
30
0
11
34
21
-35.5
31
0
0
LINE
8
OBJECT
10
34
20
-35.5
30
0
11
39
21
-30
31
0
0
LINE
8
OBJECT
10
39
20
-30
30
0
11
106.4
21
-30
31
0
0
LINE
8
OBJECT
10
106.4
20
-30
30
0
11
110.4
21
-25
31
0
0
LINE
8
OBJECT
10
110.4
20
-25
30
0
11
159.6
21
-25
31
0
0
LINE
8
OBJECT
10
159.6
20
-25
30
0
11
162.6
21
-19.5
31
0
0
LINE
8
OBJECT
10
162.6
20
-19.5
30
0
11
187
21
-19.5
31
0
0
LINE
8
OBJECT
10
187
20
-19.5
30
0
11
190
21
-17.25
31
0
0
LINE
8
OBJECT
10
190
20
-17.25
30
0
11
190
21
0
31
0
0
LINE
8
OBJECT
10
0
20
0
30
0
11
0
21
33
31
0
0
LINE
8
OBJECT
10
0
20
33
30
0
11
4
21
35.5
31
0
0
LINE
8
OBJECT
10
4
20
35.5
30
0
11
34
21
35.5
31
0
0
LINE
8
OBJECT
10
34
20
35.5
30
0
11
39
21
30
31
0
0
LINE
8
OBJECT
10
39
20
30
30
0
11
106.4
21
30
31
0
0
LINE
8
OBJECT
10
106.4
20
30
30
0
11
110.4
21
25
31
0
0
LINE
8
OBJECT
10
110.4
20
25
30
0
11
159.6
21
25
31
0
0
LINE
8
OBJECT
10
159.6
20
25
30
0
11
162.6
21
19.5
31
0
0
LINE
8
OBJECT
10
162.6
20
19.5
30
0
11
187
21
19.5
31
0
0
LINE
8
OBJECT
10
187
20
19.5
30
0
11
190
21
17.25
31
0
0
LINE
8
OBJECT
10
190
20
17.25
30
0
11
190
21
0
31
0
0
LINE
8
DIM
10
-190
20
-170
30
0
11
-190
21
-115
31
0
0
LINE
8
DIM
10
0
20
-170
30
0
11
0
21
-115
31
0
0
LINE
8
DIM
10
-190
20
-140
30
0
11
0
21
-140
31
0
0
LINE
8
DIM
10
-190
20
-140
30
0
11
-178
21
-146
31
0
0
LINE
8
DIM
10
-190
20
-140
30
0
11
-178
21
-134
31
0
0
LINE
8
DIM
10
0
20
-140
30
0
11
-12
21
-146
31
0
0
LINE
8
DIM
10
0
20
-140
30
0
11
-12
21
-134
31
0
0
TEXT
8
DIM
10
-95
20
-126
30
0
40
22
1
좌측 돌출 190
0
LINE
8
DIM
10
0
20
-170
30
0
11
0
21
-115
31
0
0
LINE
8
DIM
10
190
20
-170
30
0
11
190
21
-115
31
0
0
LINE
8
DIM
10
0
20
-140
30
0
11
190
21
-140
31
0
0
LINE
8
DIM
10
0
20
-140
30
0
11
12
21
-146
31
0
0
LINE
8
DIM
10
0
20
-140
30
0
11
12
21
-134
31
0
0
LINE
8
DIM
10
190
20
-140
30
0
11
178
21
-146
31
0
0
LINE
8
DIM
10
190
20
-140
30
0
11
178
21
-134
31
0
0
TEXT
8
DIM
10
95
20
-126
30
0
40
22
1
우측 돌출 190
0
TEXT
8
TEXT
10
0
20
90
30
0
40
22
1
좌·우 축 프로파일 · 접합부 규격 미확정
0
CIRCLE
8
OBJECT
10
0
20
420
30
0
40
90
0
CIRCLE
8
OBJECT
10
0
20
420
30
0
40
73
0
CIRCLE
8
OBJECT
10
0
20
420
30
0
40
57
0
TEXT
8
TEXT
10
0
20
560
30
0
40
22
1
외경 Ø180 / 심관 외경 Ø146
0
TEXT
8
TEXT
10
0
20
600
30
0
40
22
1
표면층 17 / 심관 두께 16 (가정)
0
LINE
8
OBJECT
10
-220
20
700
30
0
11
-30
21
700
31
0
0
LINE
8
OBJECT
10
-30
20
700
30
0
11
-20
21
668
31
0
0
LINE
8
OBJECT
10
-20
20
668
30
0
11
20
21
668
31
0
0
LINE
8
OBJECT
10
20
20
668
30
0
11
30
21
700
31
0
0
LINE
8
OBJECT
10
30
20
700
30
0
11
220
21
700
31
0
0
TEXT
8
TEXT
10
0
20
750
30
0
40
22
1
홈 단면 개념 확대 · 깊이 4 / 8줄 / 리드 680
0
ENDSEC
0
EOF
