0
SECTION
2
HEADER
9
$ACADVER
1
AC1021
9
$INSUNITS
70
4
0
ENDSEC
0
SECTION
2
ENTITIES
0
LINE
8
OBJECT
10
-700
20
-90
30
0
11
700
21
-90
31
0
0
LINE
8
OBJECT
10
700
20
-90
30
0
11
700
21
90
31
0
0
LINE
8
OBJECT
10
700
20
90
30
0
11
-700
21
90
31
0
0
LINE
8
OBJECT
10
-700
20
90
30
0
11
-700
21
-90
31
0
0
LINE
8
OBJECT
10
-700
20
0
30
0
11
-700
21
-33
31
0
0
LINE
8
OBJECT
10
-700
20
-33
30
0
11
-704
21
-35.5
31
0
0
LINE
8
OBJECT
10
-704
20
-35.5
30
0
11
-734
21
-35.5
31
0
0
LINE
8
OBJECT
10
-734
20
-35.5
30
0
11
-739
21
-30
31
0
0
LINE
8
OBJECT
10
-739
20
-30
30
0
11
-806.4
21
-30
31
0
0
LINE
8
OBJECT
10
-806.4
20
-30
30
0
11
-810.4
21
-25
31
0
0
LINE
8
OBJECT
10
-810.4
20
-25
30
0
11
-859.6
21
-25
31
0
0
LINE
8
OBJECT
10
-859.6
20
-25
30
0
11
-862.6
21
-19.5
31
0
0
LINE
8
OBJECT
10
-862.6
20
-19.5
30
0
11
-887
21
-19.5
31
0
0
LINE
8
OBJECT
10
-887
20
-19.5
30
0
11
-890
21
-17.25
31
0
0
LINE
8
OBJECT
10
-890
20
-17.25
30
0
11
-890
21
0
31
0
0
LINE
8
OBJECT
10
-700
20
0
30
0
11
-700
21
33
31
0
0
LINE
8
OBJECT
10
-700
20
33
30
0
11
-704
21
35.5
31
0
0
LINE
8
OBJECT
10
-704
20
35.5
30
0
11
-734
21
35.5
31
0
0
LINE
8
OBJECT
10
-734
20
35.5
30
0
11
-739
21
30
31
0
0
LINE
8
OBJECT
10
-739
20
30
30
0
11
-806.4
21
30
31
0
0
LINE
8
OBJECT
10
-806.4
20
30
30
0
11
-810.4
21
25
31
0
0
LINE
8
OBJECT
10
-810.4
20
25
30
0
11
-859.6
21
25
31
0
0
LINE
8
OBJECT
10
-859.6
20
25
30
0
11
-862.6
21
19.5
31
0
0
LINE
8
OBJECT
10
-862.6
20
19.5
30
0
11
-887
21
19.5
31
0
0
LINE
8
OBJECT
10
-887
20
19.5
30
0
11
-890
21
17.25
31
0
0
LINE
8
OBJECT
10
-890
20
17.25
30
0
11
-890
21
0
31
0
0
LINE
8
OBJECT
10
700
20
0
30
0
11
700
21
-33
31
0
0
LINE
8
OBJECT
10
700
20
-33
30
0
11
704
21
-35.5
31
0
0
LINE
8
OBJECT
10
704
20
-35.5
30
0
11
734
21
-35.5
31
0
0
LINE
8
OBJECT
10
734
20
-35.5
30
0
11
739
21
-30
31
0
0
LINE
8
OBJECT
10
739
20
-30
30
0
11
806.4
21
-30
31
0
0
LINE
8
OBJECT
10
806.4
20
-30
30
0
11
810.4
21
-25
31
0
0
LINE
8
OBJECT
10
810.4
20
-25
30
0
11
859.6
21
-25
31
0
0
LINE
8
OBJECT
10
859.6
20
-25
30
0
11
862.6
21
-19.5
31
0
0
LINE
8
OBJECT
10
862.6
20
-19.5
30
0
11
887
21
-19.5
31
0
0
LINE
8
OBJECT
10
887
20
-19.5
30
0
11
890
21
-17.25
31
0
0
LINE
8
OBJECT
10
890
20
-17.25
30
0
11
890
21
0
31
0
0
LINE
8
OBJECT
10
700
20
0
30
0
11
700
21
33
31
0
0
LINE
8
OBJECT
10
700
20
33
30
0
11
704
21
35.5
31
0
0
LINE
8
OBJECT
10
704
20
35.5
30
0
11
734
21
35.5
31
0
0
LINE
8
OBJECT
10
734
20
35.5
30
0
11
739
21
30
31
0
0
LINE
8
OBJECT
10
739
20
30
30
0
11
806.4
21
30
31
0
0
LINE
8
OBJECT
10
806.4
20
30
30
0
11
810.4
21
25
31
0
0
LINE
8
OBJECT
10
810.4
20
25
30
0
11
859.6
21
25
31
0
0
LINE
8
OBJECT
10
859.6
20
25
30
0
11
862.6
21
19.5
31
0
0
LINE
8
OBJECT
10
862.6
20
19.5
30
0
11
887
21
19.5
31
0
0
LINE
8
OBJECT
10
887
20
19.5
30
0
11
890
21
17.25
31
0
0
LINE
8
OBJECT
10
890
20
17.25
30
0
11
890
21
0
31
0
0
LINE
8
CENTER
10
-930
20
0
30
0
11
930
21
0
31
0
0
LINE
8
GROOVE
10
-18
20
-85
30
0
11
-98
21
85
31
0
0
LINE
8
GROOVE
10
-103
20
-85
30
0
11
-183
21
85
31
0
0
LINE
8
GROOVE
10
-188
20
-85
30
0
11
-268
21
85
31
0
0
LINE
8
GROOVE
10
-273
20
-85
30
0
11
-353
21
85
31
0
0
LINE
8
GROOVE
10
-358
20
-85
30
0
11
-438
21
85
31
0
0
LINE
8
GROOVE
10
-443
20
-85
30
0
11
-523
21
85
31
0
0
LINE
8
GROOVE
10
-528
20
-85
30
0
11
-608
21
85
31
0
0
LINE
8
GROOVE
10
-613
20
-85
30
0
11
-693
21
85
31
0
0
LINE
8
GROOVE
10
18
20
-85
30
0
11
98
21
85
31
0
0
LINE
8
GROOVE
10
103
20
-85
30
0
11
183
21
85
31
0
0
LINE
8
GROOVE
10
188
20
-85
30
0
11
268
21
85
31
0
0
LINE
8
GROOVE
10
273
20
-85
30
0
11
353
21
85
31
0
0
LINE
8
GROOVE
10
358
20
-85
30
0
11
438
21
85
31
0
0
LINE
8
GROOVE
10
443
20
-85
30
0
11
523
21
85
31
0
0
LINE
8
GROOVE
10
528
20
-85
30
0
11
608
21
85
31
0
0
LINE
8
GROOVE
10
613
20
-85
30
0
11
693
21
85
31
0
0
LINE
8
DIM
10
-700
20
-205
30
0
11
-700
21
-150
31
0
0
LINE
8
DIM
10
700
20
-205
30
0
11
700
21
-150
31
0
0
LINE
8
DIM
10
-700
20
-175
30
0
11
700
21
-175
31
0
0
LINE
8
DIM
10
-700
20
-175
30
0
11
-688
21
-181
31
0
0
LINE
8
DIM
10
-700
20
-175
30
0
11
-688
21
-169
31
0
0
LINE
8
DIM
10
700
20
-175
30
0
11
688
21
-181
31
0
0
LINE
8
DIM
10
700
20
-175
30
0
11
688
21
-169
31
0
0
TEXT
8
DIM
10
0
20
-161
30
0
40
22
1
몸통 길이 1400
0
LINE
8
DIM
10
-890
20
-290
30
0
11
-890
21
-235
31
0
0
LINE
8
DIM
10
890
20
-290
30
0
11
890
21
-235
31
0
0
LINE
8
DIM
10
-890
20
-260
30
0
11
890
21
-260
31
0
0
LINE
8
DIM
10
-890
20
-260
30
0
11
-878
21
-266
31
0
0
LINE
8
DIM
10
-890
20
-260
30
0
11
-878
21
-254
31
0
0
LINE
8
DIM
10
890
20
-260
30
0
11
878
21
-266
31
0
0
LINE
8
DIM
10
890
20
-260
30
0
11
878
21
-254
31
0
0
TEXT
8
DIM
10
0
20
-246
30
0
40
22
1
전체 길이 1780
0
TEXT
8
TEXT
10
0
20
145
30
0
40
24
1
정면도 · 외경 Ø180 / 축 기준 Ø50
0
CIRCLE
8
OBJECT
10
0
20
430
30
0
40
90
0
CIRCLE
8
OBJECT
10
0
20
430
30
0
40
73
0
CIRCLE
8
OBJECT
10
0
20
430
30
0
40
25
0
LINE
8
CENTER
10
-120
20
430
30
0
11
120
21
430
31
0
0
LINE
8
CENTER
10
0
20
310
30
0
11
0
21
550
31
0
0
TEXT
8
TEXT
10
0
20
560
30
0
40
22
1
단부 투영 / 내부 경계는 가정
0
ENDSEC
0
EOF
