<svg xmlns="http://www.w3.org/2000/svg" viewBox="0 0 1200 800" role="img" aria-label="장축 롤 주요 부품도"><rect width="1200" height="800" fill="#fbfcfd"/><g font-family="Arial, Malgun Gothic, sans-serif"><rect x="24" y="24" width="1152" height="752" fill="none" stroke="#c6d0d9"/><text x="50" y="64" font-size="23" fill="#203244">승지정밀산업롤 · 장축 롤</text><text x="1150" y="63" text-anchor="end" font-size="15" fill="#687b8c">R–02 / 주요 부품도 / TEST2</text><line x1="24" y1="88" x2="1176" y2="88" stroke="#c6d0d9"/><line x1="666.5024630541872" y1="526.9458128078818" x2="666.5024630541872" y2="557.6699507389162" stroke="#294052" stroke-width="1.6" /><line x1="666.5024630541872" y1="557.6699507389162" x2="663.8423645320197" y2="559.9975369458127" stroke="#294052" stroke-width="1.6" /><line x1="663.8423645320197" y1="559.9975369458127" x2="643.8916256157636" y2="559.9975369458127" stroke="#294052" stroke-width="1.6" /><line x1="643.8916256157636" y1="559.9975369458127" x2="640.5665024630542" y2="554.8768472906404" stroke="#294052" stroke-width="1.6" /><line x1="640.5665024630542" y1="554.8768472906404" x2="472.8472906403941" y2="554.8768472906404" stroke="#294052" stroke-width="1.6" /><line x1="472.8472906403941" y1="554.8768472906404" x2="470.18719211822656" y2="550.2216748768473" stroke="#294052" stroke-width="1.6" /><line x1="470.18719211822656" y1="550.2216748768473" x2="376.0197044334975" y2="550.2216748768473" stroke="#294052" stroke-width="1.6" /><line x1="376.0197044334975" y1="550.2216748768473" x2="374.02463054187194" y2="545.1009852216748" stroke="#294052" stroke-width="1.6" /><line x1="374.02463054187194" y1="545.1009852216748" x2="322.6847290640394" y2="545.1009852216748" stroke="#294052" stroke-width="1.6" /><line x1="322.6847290640394" y1="545.1009852216748" x2="320.68965517241384" y2="543.006157635468" stroke="#294052" stroke-width="1.6" /><line x1="320.68965517241384" y1="543.006157635468" x2="320.68965517241384" y2="526.9458128078818" stroke="#294052" stroke-width="1.6" /><line x1="666.5024630541872" y1="526.9458128078818" x2="666.5024630541872" y2="496.22167487684726" stroke="#294052" stroke-width="1.6" /><line x1="666.5024630541872" y1="496.22167487684726" x2="663.8423645320197" y2="493.89408866995075" stroke="#294052" stroke-width="1.6" /><line x1="663.8423645320197" y1="493.89408866995075" x2="643.8916256157636" y2="493.89408866995075" stroke="#294052" stroke-width="1.6" /><line x1="643.8916256157636" y1="493.89408866995075" x2="640.5665024630542" y2="499.01477832512313" stroke="#294052" stroke-width="1.6" /><line x1="640.5665024630542" y1="499.01477832512313" x2="472.8472906403941" y2="499.01477832512313" stroke="#294052" stroke-width="1.6" /><line x1="472.8472906403941" y1="499.01477832512313" x2="470.18719211822656" y2="503.6699507389162" stroke="#294052" stroke-width="1.6" /><line x1="470.18719211822656" y1="503.6699507389162" x2="376.0197044334975" y2="503.6699507389162" stroke="#294052" stroke-width="1.6" /><line x1="376.0197044334975" y1="503.6699507389162" x2="374.02463054187194" y2="508.79064039408865" stroke="#294052" stroke-width="1.6" /><line x1="374.02463054187194" y1="508.79064039408865" x2="322.6847290640394" y2="508.79064039408865" stroke="#294052" stroke-width="1.6" /><line x1="322.6847290640394" y1="508.79064039408865" x2="320.68965517241384" y2="510.8854679802955" stroke="#294052" stroke-width="1.6" /><line x1="320.68965517241384" y1="510.8854679802955" x2="320.68965517241384" y2="526.9458128078818" stroke="#294052" stroke-width="1.6" /><line x1="666.5024630541872" y1="526.9458128078818" x2="666.5024630541872" y2="557.6699507389162" stroke="#294052" stroke-width="1.6" /><line x1="666.5024630541872" y1="557.6699507389162" x2="669.1625615763546" y2="559.9975369458127" stroke="#294052" stroke-width="1.6" /><line x1="669.1625615763546" y1="559.9975369458127" x2="689.1133004926108" y2="559.9975369458127" stroke="#294052" stroke-width="1.6" /><line x1="689.1133004926108" y1="559.9975369458127" x2="692.4384236453202" y2="554.8768472906404" stroke="#294052" stroke-width="1.6" /><line x1="692.4384236453202" y1="554.8768472906404" x2="785.6748768472906" y2="554.8768472906404" stroke="#294052" stroke-width="1.6" /><line x1="785.6748768472906" y1="554.8768472906404" x2="788.3349753694581" y2="550.2216748768473" stroke="#294052" stroke-width="1.6" /><line x1="788.3349753694581" y1="550.2216748768473" x2="845.2610837438424" y2="550.2216748768473" stroke="#294052" stroke-width="1.6" /><line x1="845.2610837438424" y1="550.2216748768473" x2="847.256157635468" y2="545.1009852216748" stroke="#294052" stroke-width="1.6" /><line x1="847.256157635468" y1="545.1009852216748" x2="877.3152709359606" y2="545.1009852216748" stroke="#294052" stroke-width="1.6" /><line x1="877.3152709359606" y1="545.1009852216748" x2="879.3103448275862" y2="543.006157635468" stroke="#294052" stroke-width="1.6" /><line x1="879.3103448275862" y1="543.006157635468" x2="879.3103448275862" y2="526.9458128078818" stroke="#294052" stroke-width="1.6" /><line x1="666.5024630541872" y1="526.9458128078818" x2="666.5024630541872" y2="496.22167487684726" stroke="#294052" stroke-width="1.6" /><line x1="666.5024630541872" y1="496.22167487684726" x2="669.1625615763546" y2="493.89408866995075" stroke="#294052" stroke-width="1.6" /><line x1="669.1625615763546" y1="493.89408866995075" x2="689.1133004926108" y2="493.89408866995075" stroke="#294052" stroke-width="1.6" /><line x1="689.1133004926108" y1="493.89408866995075" x2="692.4384236453202" y2="499.01477832512313" stroke="#294052" stroke-width="1.6" /><line x1="692.4384236453202" y1="499.01477832512313" x2="785.6748768472906" y2="499.01477832512313" stroke="#294052" stroke-width="1.6" /><line x1="785.6748768472906" y1="499.01477832512313" x2="788.3349753694581" y2="503.6699507389162" stroke="#294052" stroke-width="1.6" /><line x1="788.3349753694581" y1="503.6699507389162" x2="845.2610837438424" y2="503.6699507389162" stroke="#294052" stroke-width="1.6" /><line x1="845.2610837438424" y1="503.6699507389162" x2="847.256157635468" y2="508.79064039408865" stroke="#294052" stroke-width="1.6" /><line x1="847.256157635468" y1="508.79064039408865" x2="877.3152709359606" y2="508.79064039408865" stroke="#294052" stroke-width="1.6" /><line x1="877.3152709359606" y1="508.79064039408865" x2="879.3103448275862" y2="510.8854679802955" stroke="#294052" stroke-width="1.6" /><line x1="879.3103448275862" y1="510.8854679802955" x2="879.3103448275862" y2="526.9458128078818" stroke="#294052" stroke-width="1.6" /><line x1="320.68965517241384" y1="640" x2="320.68965517241384" y2="603.423645320197" stroke="#648297" stroke-width="0.9" /><line x1="666.5024630541872" y1="640" x2="666.5024630541872" y2="603.423645320197" stroke="#648297" stroke-width="0.9" /><line x1="320.68965517241384" y1="620.0492610837439" x2="666.5024630541872" y2="620.0492610837439" stroke="#648297" stroke-width="0.9" /><line x1="320.68965517241384" y1="620.0492610837439" x2="328.66995073891627" y2="624.039408866995" stroke="#648297" stroke-width="0.9" /><line x1="320.68965517241384" y1="620.0492610837439" x2="328.66995073891627" y2="616.0591133004925" stroke="#648297" stroke-width="0.9" /><line x1="666.5024630541872" y1="620.0492610837439" x2="658.5221674876848" y2="624.039408866995" stroke="#648297" stroke-width="0.9" /><line x1="666.5024630541872" y1="620.0492610837439" x2="658.5221674876848" y2="616.0591133004925" stroke="#648297" stroke-width="0.9" /><text x="493.5960591133005" y="610.7389162561576" text-anchor="middle" fill="#648297" font-size="14.630541871921181">좌측 돌출 520</text><line x1="666.5024630541872" y1="640" x2="666.5024630541872" y2="603.423645320197" stroke="#648297" stroke-width="0.9" /><line x1="879.3103448275862" y1="640" x2="879.3103448275862" y2="603.423645320197" stroke="#648297" stroke-width="0.9" /><line x1="666.5024630541872" y1="620.0492610837439" x2="879.3103448275862" y2="620.0492610837439" stroke="#648297" stroke-width="0.9" /><line x1="666.5024630541872" y1="620.0492610837439" x2="674.4827586206897" y2="624.039408866995" stroke="#648297" stroke-width="0.9" /><line x1="666.5024630541872" y1="620.0492610837439" x2="674.4827586206897" y2="616.0591133004925" stroke="#648297" stroke-width="0.9" /><line x1="879.3103448275862" y1="620.0492610837439" x2="871.3300492610838" y2="624.039408866995" stroke="#648297" stroke-width="0.9" /><line x1="879.3103448275862" y1="620.0492610837439" x2="871.3300492610838" y2="616.0591133004925" stroke="#648297" stroke-width="0.9" /><text x="772.9064039408867" y="610.7389162561576" text-anchor="middle" fill="#648297" font-size="14.630541871921181">우측 돌출 320</text><text x="666.5024630541872" y="467.0935960591133" text-anchor="middle" fill="#294052" font-size="14.630541871921181">좌·우 축 프로파일 · 접합부 규격 미확정</text><circle cx="666.5024630541872" cy="247.63546798029557" r="73.15270935960591" stroke="#294052" stroke-width="1.4" fill="none"/><circle cx="666.5024630541872" cy="247.63546798029557" r="65.17241379310344" stroke="#294052" stroke-width="1.4" fill="none"/><circle cx="666.5024630541872" cy="247.63546798029557" r="54.532019704433495" stroke="#294052" stroke-width="1.4" fill="none"/><text x="666.5024630541872" y="141.23152709359607" text-anchor="middle" fill="#294052" font-size="14.630541871921181">외경 Ø220 / 심관 외경 Ø196</text><text x="666.5024630541872" y="114.6305418719212" text-anchor="middle" fill="#294052" font-size="14.630541871921181">표면층 12 / 심관 두께 16 (가정)</text><line x1="24" y1="679" x2="1176" y2="679" stroke="#c6d0d9"/><text x="50" y="711" font-size="15" fill="#203244">축 단차와 표면층·심관을 설명하는 주요 부품도</text><text x="50" y="739" font-size="14" fill="#687b8c">사진의 비례를 기준으로 만든 검토용 모델입니다. 표기 치수는 가정값이며 제작용 확정 도면이 아닙니다.</text><text x="1150" y="761" text-anchor="end" font-size="12" fill="#687b8c">단위 mm · 화면 맞춤 축척 · REV A · 기준 비율 1</text></g></svg>