0
SECTION
2
HEADER
9
$ACADVER
1
AC1021
9
$INSUNITS
70
4
0
ENDSEC
0
SECTION
2
ENTITIES
0
LINE
8
OBJECT
10
-400
20
-110
30
0
11
400
21
-110
31
0
0
LINE
8
OBJECT
10
400
20
-110
30
0
11
400
21
110
31
0
0
LINE
8
OBJECT
10
400
20
110
30
0
11
-400
21
110
31
0
0
LINE
8
OBJECT
10
-400
20
110
30
0
11
-400
21
-110
31
0
0
LINE
8
OBJECT
10
-400
20
0
30
0
11
-400
21
-46.2
31
0
0
LINE
8
OBJECT
10
-400
20
-46.2
30
0
11
-404
21
-49.7
31
0
0
LINE
8
OBJECT
10
-404
20
-49.7
30
0
11
-434
21
-49.7
31
0
0
LINE
8
OBJECT
10
-434
20
-49.7
30
0
11
-439
21
-42
31
0
0
LINE
8
OBJECT
10
-439
20
-42
30
0
11
-691.2
21
-42
31
0
0
LINE
8
OBJECT
10
-691.2
20
-42
30
0
11
-695.2
21
-35
31
0
0
LINE
8
OBJECT
10
-695.2
20
-35
30
0
11
-836.8
21
-35
31
0
0
LINE
8
OBJECT
10
-836.8
20
-35
30
0
11
-839.8
21
-27.3
31
0
0
LINE
8
OBJECT
10
-839.8
20
-27.3
30
0
11
-917
21
-27.3
31
0
0
LINE
8
OBJECT
10
-917
20
-27.3
30
0
11
-920
21
-24.15
31
0
0
LINE
8
OBJECT
10
-920
20
-24.15
30
0
11
-920
21
0
31
0
0
LINE
8
OBJECT
10
-400
20
0
30
0
11
-400
21
46.2
31
0
0
LINE
8
OBJECT
10
-400
20
46.2
30
0
11
-404
21
49.7
31
0
0
LINE
8
OBJECT
10
-404
20
49.7
30
0
11
-434
21
49.7
31
0
0
LINE
8
OBJECT
10
-434
20
49.7
30
0
11
-439
21
42
31
0
0
LINE
8
OBJECT
10
-439
20
42
30
0
11
-691.2
21
42
31
0
0
LINE
8
OBJECT
10
-691.2
20
42
30
0
11
-695.2
21
35
31
0
0
LINE
8
OBJECT
10
-695.2
20
35
30
0
11
-836.8
21
35
31
0
0
LINE
8
OBJECT
10
-836.8
20
35
30
0
11
-839.8
21
27.3
31
0
0
LINE
8
OBJECT
10
-839.8
20
27.3
30
0
11
-917
21
27.3
31
0
0
LINE
8
OBJECT
10
-917
20
27.3
30
0
11
-920
21
24.15
31
0
0
LINE
8
OBJECT
10
-920
20
24.15
30
0
11
-920
21
0
31
0
0
LINE
8
OBJECT
10
400
20
0
30
0
11
400
21
-46.2
31
0
0
LINE
8
OBJECT
10
400
20
-46.2
30
0
11
404
21
-49.7
31
0
0
LINE
8
OBJECT
10
404
20
-49.7
30
0
11
434
21
-49.7
31
0
0
LINE
8
OBJECT
10
434
20
-49.7
30
0
11
439
21
-42
31
0
0
LINE
8
OBJECT
10
439
20
-42
30
0
11
579.2
21
-42
31
0
0
LINE
8
OBJECT
10
579.2
20
-42
30
0
11
583.2
21
-35
31
0
0
LINE
8
OBJECT
10
583.2
20
-35
30
0
11
668.8
21
-35
31
0
0
LINE
8
OBJECT
10
668.8
20
-35
30
0
11
671.8
21
-27.3
31
0
0
LINE
8
OBJECT
10
671.8
20
-27.3
30
0
11
717
21
-27.3
31
0
0
LINE
8
OBJECT
10
717
20
-27.3
30
0
11
720
21
-24.15
31
0
0
LINE
8
OBJECT
10
720
20
-24.15
30
0
11
720
21
0
31
0
0
LINE
8
OBJECT
10
400
20
0
30
0
11
400
21
46.2
31
0
0
LINE
8
OBJECT
10
400
20
46.2
30
0
11
404
21
49.7
31
0
0
LINE
8
OBJECT
10
404
20
49.7
30
0
11
434
21
49.7
31
0
0
LINE
8
OBJECT
10
434
20
49.7
30
0
11
439
21
42
31
0
0
LINE
8
OBJECT
10
439
20
42
30
0
11
579.2
21
42
31
0
0
LINE
8
OBJECT
10
579.2
20
42
30
0
11
583.2
21
35
31
0
0
LINE
8
OBJECT
10
583.2
20
35
30
0
11
668.8
21
35
31
0
0
LINE
8
OBJECT
10
668.8
20
35
30
0
11
671.8
21
27.3
31
0
0
LINE
8
OBJECT
10
671.8
20
27.3
30
0
11
717
21
27.3
31
0
0
LINE
8
OBJECT
10
717
20
27.3
30
0
11
720
21
24.15
31
0
0
LINE
8
OBJECT
10
720
20
24.15
30
0
11
720
21
0
31
0
0
LINE
8
CENTER
10
-960
20
0
30
0
11
760
21
0
31
0
0
LINE
8
DIM
10
-400
20
-225
30
0
11
-400
21
-170
31
0
0
LINE
8
DIM
10
400
20
-225
30
0
11
400
21
-170
31
0
0
LINE
8
DIM
10
-400
20
-195
30
0
11
400
21
-195
31
0
0
LINE
8
DIM
10
-400
20
-195
30
0
11
-388
21
-201
31
0
0
LINE
8
DIM
10
-400
20
-195
30
0
11
-388
21
-189
31
0
0
LINE
8
DIM
10
400
20
-195
30
0
11
388
21
-201
31
0
0
LINE
8
DIM
10
400
20
-195
30
0
11
388
21
-189
31
0
0
TEXT
8
DIM
10
0
20
-181
30
0
40
22
1
몸통 길이 800
0
LINE
8
DIM
10
-920
20
-310
30
0
11
-920
21
-255
31
0
0
LINE
8
DIM
10
720
20
-310
30
0
11
720
21
-255
31
0
0
LINE
8
DIM
10
-920
20
-280
30
0
11
720
21
-280
31
0
0
LINE
8
DIM
10
-920
20
-280
30
0
11
-908
21
-286
31
0
0
LINE
8
DIM
10
-920
20
-280
30
0
11
-908
21
-274
31
0
0
LINE
8
DIM
10
720
20
-280
30
0
11
708
21
-286
31
0
0
LINE
8
DIM
10
720
20
-280
30
0
11
708
21
-274
31
0
0
TEXT
8
DIM
10
-100
20
-266
30
0
40
22
1
전체 길이 1640
0
TEXT
8
TEXT
10
0
20
165
30
0
40
24
1
정면도 · 외경 Ø220 / 축 기준 Ø70
0
CIRCLE
8
OBJECT
10
0
20
450
30
0
40
110
0
CIRCLE
8
OBJECT
10
0
20
450
30
0
40
98
0
CIRCLE
8
OBJECT
10
0
20
450
30
0
40
35
0
LINE
8
CENTER
10
-140
20
450
30
0
11
140
21
450
31
0
0
LINE
8
CENTER
10
0
20
310
30
0
11
0
21
590
31
0
0
TEXT
8
TEXT
10
0
20
600
30
0
40
22
1
단부 투영 / 내부 경계는 가정
0
ENDSEC
0
EOF
