0
SECTION
2
HEADER
9
$ACADVER
1
AC1021
9
$INSUNITS
70
4
0
ENDSEC
0
SECTION
2
ENTITIES
0
LINE
8
OBJECT
10
-400
20
110
30
0
11
400
21
110
31
0
0
LINE
8
OBJECT
10
400
20
110
30
0
11
400
21
330
31
0
0
LINE
8
OBJECT
10
400
20
330
30
0
11
-400
21
330
31
0
0
LINE
8
OBJECT
10
-400
20
330
30
0
11
-400
21
110
31
0
0
TEXT
8
TEXT
10
0
20
375
30
0
40
22
1
01 표면층 / 사선 홈 또는 표면 마감
0
LINE
8
OBJECT
10
-400
20
-98
30
0
11
400
21
-98
31
0
0
LINE
8
OBJECT
10
400
20
-98
30
0
11
400
21
98
31
0
0
LINE
8
OBJECT
10
400
20
98
30
0
11
-400
21
98
31
0
0
LINE
8
OBJECT
10
-400
20
98
30
0
11
-400
21
-98
31
0
0
LINE
8
HATCH
10
-400
20
-82
30
0
11
400
21
-82
31
0
0
LINE
8
HATCH
10
400
20
-82
30
0
11
400
21
82
31
0
0
LINE
8
HATCH
10
400
20
82
30
0
11
-400
21
82
31
0
0
LINE
8
HATCH
10
-400
20
82
30
0
11
-400
21
-82
31
0
0
LINE
8
HATCH
10
-400
20
-98
30
0
11
-400
21
-98
31
0
0
LINE
8
HATCH
10
-391
20
-82
30
0
11
-375
21
-98
31
0
0
LINE
8
HATCH
10
-366
20
-82
30
0
11
-350
21
-98
31
0
0
LINE
8
HATCH
10
-341
20
-82
30
0
11
-325
21
-98
31
0
0
LINE
8
HATCH
10
-316
20
-82
30
0
11
-300
21
-98
31
0
0
LINE
8
HATCH
10
-291
20
-82
30
0
11
-275
21
-98
31
0
0
LINE
8
HATCH
10
-266
20
-82
30
0
11
-250
21
-98
31
0
0
LINE
8
HATCH
10
-241
20
-82
30
0
11
-225
21
-98
31
0
0
LINE
8
HATCH
10
-216
20
-82
30
0
11
-200
21
-98
31
0
0
LINE
8
HATCH
10
-191
20
-82
30
0
11
-175
21
-98
31
0
0
LINE
8
HATCH
10
-166
20
-82
30
0
11
-150
21
-98
31
0
0
LINE
8
HATCH
10
-141
20
-82
30
0
11
-125
21
-98
31
0
0
LINE
8
HATCH
10
-116
20
-82
30
0
11
-100
21
-98
31
0
0
LINE
8
HATCH
10
-91
20
-82
30
0
11
-75
21
-98
31
0
0
LINE
8
HATCH
10
-66
20
-82
30
0
11
-50
21
-98
31
0
0
LINE
8
HATCH
10
-41
20
-82
30
0
11
-25
21
-98
31
0
0
LINE
8
HATCH
10
-16
20
-82
30
0
11
0
21
-98
31
0
0
LINE
8
HATCH
10
9
20
-82
30
0
11
25
21
-98
31
0
0
LINE
8
HATCH
10
34
20
-82
30
0
11
50
21
-98
31
0
0
LINE
8
HATCH
10
59
20
-82
30
0
11
75
21
-98
31
0
0
LINE
8
HATCH
10
84
20
-82
30
0
11
100
21
-98
31
0
0
LINE
8
HATCH
10
109
20
-82
30
0
11
125
21
-98
31
0
0
LINE
8
HATCH
10
134
20
-82
30
0
11
150
21
-98
31
0
0
LINE
8
HATCH
10
159
20
-82
30
0
11
175
21
-98
31
0
0
LINE
8
HATCH
10
184
20
-82
30
0
11
200
21
-98
31
0
0
LINE
8
HATCH
10
209
20
-82
30
0
11
225
21
-98
31
0
0
LINE
8
HATCH
10
234
20
-82
30
0
11
250
21
-98
31
0
0
LINE
8
HATCH
10
259
20
-82
30
0
11
275
21
-98
31
0
0
LINE
8
HATCH
10
284
20
-82
30
0
11
300
21
-98
31
0
0
LINE
8
HATCH
10
309
20
-82
30
0
11
325
21
-98
31
0
0
LINE
8
HATCH
10
334
20
-82
30
0
11
350
21
-98
31
0
0
LINE
8
HATCH
10
359
20
-82
30
0
11
375
21
-98
31
0
0
LINE
8
HATCH
10
384
20
-82
30
0
11
400
21
-98
31
0
0
LINE
8
HATCH
10
-400
20
82
30
0
11
-400
21
82
31
0
0
LINE
8
HATCH
10
-391
20
98
30
0
11
-375
21
82
31
0
0
LINE
8
HATCH
10
-366
20
98
30
0
11
-350
21
82
31
0
0
LINE
8
HATCH
10
-341
20
98
30
0
11
-325
21
82
31
0
0
LINE
8
HATCH
10
-316
20
98
30
0
11
-300
21
82
31
0
0
LINE
8
HATCH
10
-291
20
98
30
0
11
-275
21
82
31
0
0
LINE
8
HATCH
10
-266
20
98
30
0
11
-250
21
82
31
0
0
LINE
8
HATCH
10
-241
20
98
30
0
11
-225
21
82
31
0
0
LINE
8
HATCH
10
-216
20
98
30
0
11
-200
21
82
31
0
0
LINE
8
HATCH
10
-191
20
98
30
0
11
-175
21
82
31
0
0
LINE
8
HATCH
10
-166
20
98
30
0
11
-150
21
82
31
0
0
LINE
8
HATCH
10
-141
20
98
30
0
11
-125
21
82
31
0
0
LINE
8
HATCH
10
-116
20
98
30
0
11
-100
21
82
31
0
0
LINE
8
HATCH
10
-91
20
98
30
0
11
-75
21
82
31
0
0
LINE
8
HATCH
10
-66
20
98
30
0
11
-50
21
82
31
0
0
LINE
8
HATCH
10
-41
20
98
30
0
11
-25
21
82
31
0
0
LINE
8
HATCH
10
-16
20
98
30
0
11
0
21
82
31
0
0
LINE
8
HATCH
10
9
20
98
30
0
11
25
21
82
31
0
0
LINE
8
HATCH
10
34
20
98
30
0
11
50
21
82
31
0
0
LINE
8
HATCH
10
59
20
98
30
0
11
75
21
82
31
0
0
LINE
8
HATCH
10
84
20
98
30
0
11
100
21
82
31
0
0
LINE
8
HATCH
10
109
20
98
30
0
11
125
21
82
31
0
0
LINE
8
HATCH
10
134
20
98
30
0
11
150
21
82
31
0
0
LINE
8
HATCH
10
159
20
98
30
0
11
175
21
82
31
0
0
LINE
8
HATCH
10
184
20
98
30
0
11
200
21
82
31
0
0
LINE
8
HATCH
10
209
20
98
30
0
11
225
21
82
31
0
0
LINE
8
HATCH
10
234
20
98
30
0
11
250
21
82
31
0
0
LINE
8
HATCH
10
259
20
98
30
0
11
275
21
82
31
0
0
LINE
8
HATCH
10
284
20
98
30
0
11
300
21
82
31
0
0
LINE
8
HATCH
10
309
20
98
30
0
11
325
21
82
31
0
0
LINE
8
HATCH
10
334
20
98
30
0
11
350
21
82
31
0
0
LINE
8
HATCH
10
359
20
98
30
0
11
375
21
82
31
0
0
LINE
8
HATCH
10
384
20
98
30
0
11
400
21
82
31
0
0
TEXT
8
TEXT
10
0
20
-140
30
0
40
22
1
02 내부 심관 (가정)
0
LINE
8
OBJECT
10
-528
20
-98
30
0
11
-512
21
-98
31
0
0
LINE
8
OBJECT
10
-512
20
-98
30
0
11
-512
21
98
31
0
0
LINE
8
OBJECT
10
-512
20
98
30
0
11
-528
21
98
31
0
0
LINE
8
OBJECT
10
-528
20
98
30
0
11
-528
21
-98
31
0
0
LINE
8
OBJECT
10
-640
20
0
30
0
11
-640
21
-46.2
31
0
0
LINE
8
OBJECT
10
-640
20
-46.2
30
0
11
-644
21
-49.7
31
0
0
LINE
8
OBJECT
10
-644
20
-49.7
30
0
11
-674
21
-49.7
31
0
0
LINE
8
OBJECT
10
-674
20
-49.7
30
0
11
-679
21
-42
31
0
0
LINE
8
OBJECT
10
-679
20
-42
30
0
11
-931.2
21
-42
31
0
0
LINE
8
OBJECT
10
-931.2
20
-42
30
0
11
-935.2
21
-35
31
0
0
LINE
8
OBJECT
10
-935.2
20
-35
30
0
11
-1076.8
21
-35
31
0
0
LINE
8
OBJECT
10
-1076.8
20
-35
30
0
11
-1079.8
21
-27.3
31
0
0
LINE
8
OBJECT
10
-1079.8
20
-27.3
30
0
11
-1157
21
-27.3
31
0
0
LINE
8
OBJECT
10
-1157
20
-27.3
30
0
11
-1160
21
-24.15
31
0
0
LINE
8
OBJECT
10
-1160
20
-24.15
30
0
11
-1160
21
0
31
0
0
LINE
8
OBJECT
10
-640
20
0
30
0
11
-640
21
46.2
31
0
0
LINE
8
OBJECT
10
-640
20
46.2
30
0
11
-644
21
49.7
31
0
0
LINE
8
OBJECT
10
-644
20
49.7
30
0
11
-674
21
49.7
31
0
0
LINE
8
OBJECT
10
-674
20
49.7
30
0
11
-679
21
42
31
0
0
LINE
8
OBJECT
10
-679
20
42
30
0
11
-931.2
21
42
31
0
0
LINE
8
OBJECT
10
-931.2
20
42
30
0
11
-935.2
21
35
31
0
0
LINE
8
OBJECT
10
-935.2
20
35
30
0
11
-1076.8
21
35
31
0
0
LINE
8
OBJECT
10
-1076.8
20
35
30
0
11
-1079.8
21
27.3
31
0
0
LINE
8
OBJECT
10
-1079.8
20
27.3
30
0
11
-1157
21
27.3
31
0
0
LINE
8
OBJECT
10
-1157
20
27.3
30
0
11
-1160
21
24.15
31
0
0
LINE
8
OBJECT
10
-1160
20
24.15
30
0
11
-1160
21
0
31
0
0
LINE
8
CENTER
10
-400
20
0
30
0
11
-640
21
0
31
0
0
TEXT
8
TEXT
10
-550
20
-158
30
0
40
22
1
03 단부 / 04 단차 축
0
LINE
8
OBJECT
10
512
20
-98
30
0
11
528
21
-98
31
0
0
LINE
8
OBJECT
10
528
20
-98
30
0
11
528
21
98
31
0
0
LINE
8
OBJECT
10
528
20
98
30
0
11
512
21
98
31
0
0
LINE
8
OBJECT
10
512
20
98
30
0
11
512
21
-98
31
0
0
LINE
8
OBJECT
10
640
20
0
30
0
11
640
21
-46.2
31
0
0
LINE
8
OBJECT
10
640
20
-46.2
30
0
11
644
21
-49.7
31
0
0
LINE
8
OBJECT
10
644
20
-49.7
30
0
11
674
21
-49.7
31
0
0
LINE
8
OBJECT
10
674
20
-49.7
30
0
11
679
21
-42
31
0
0
LINE
8
OBJECT
10
679
20
-42
30
0
11
819.2
21
-42
31
0
0
LINE
8
OBJECT
10
819.2
20
-42
30
0
11
823.2
21
-35
31
0
0
LINE
8
OBJECT
10
823.2
20
-35
30
0
11
908.8
21
-35
31
0
0
LINE
8
OBJECT
10
908.8
20
-35
30
0
11
911.8
21
-27.3
31
0
0
LINE
8
OBJECT
10
911.8
20
-27.3
30
0
11
957
21
-27.3
31
0
0
LINE
8
OBJECT
10
957
20
-27.3
30
0
11
960
21
-24.15
31
0
0
LINE
8
OBJECT
10
960
20
-24.15
30
0
11
960
21
0
31
0
0
LINE
8
OBJECT
10
640
20
0
30
0
11
640
21
46.2
31
0
0
LINE
8
OBJECT
10
640
20
46.2
30
0
11
644
21
49.7
31
0
0
LINE
8
OBJECT
10
644
20
49.7
30
0
11
674
21
49.7
31
0
0
LINE
8
OBJECT
10
674
20
49.7
30
0
11
679
21
42
31
0
0
LINE
8
OBJECT
10
679
20
42
30
0
11
819.2
21
42
31
0
0
LINE
8
OBJECT
10
819.2
20
42
30
0
11
823.2
21
35
31
0
0
LINE
8
OBJECT
10
823.2
20
35
30
0
11
908.8
21
35
31
0
0
LINE
8
OBJECT
10
908.8
20
35
30
0
11
911.8
21
27.3
31
0
0
LINE
8
OBJECT
10
911.8
20
27.3
30
0
11
957
21
27.3
31
0
0
LINE
8
OBJECT
10
957
20
27.3
30
0
11
960
21
24.15
31
0
0
LINE
8
OBJECT
10
960
20
24.15
30
0
11
960
21
0
31
0
0
LINE
8
CENTER
10
400
20
0
30
0
11
640
21
0
31
0
0
TEXT
8
TEXT
10
550
20
-158
30
0
40
22
1
03 단부 / 04 단차 축
0
ENDSEC
0
EOF
