0
SECTION
2
HEADER
9
$ACADVER
1
AC1021
9
$INSUNITS
70
4
0
ENDSEC
0
SECTION
2
ENTITIES
0
LINE
8
OBJECT
10
0
20
0
30
0
11
0
21
-46.2
31
0
0
LINE
8
OBJECT
10
0
20
-46.2
30
0
11
-4
21
-49.7
31
0
0
LINE
8
OBJECT
10
-4
20
-49.7
30
0
11
-34
21
-49.7
31
0
0
LINE
8
OBJECT
10
-34
20
-49.7
30
0
11
-39
21
-42
31
0
0
LINE
8
OBJECT
10
-39
20
-42
30
0
11
-291.2
21
-42
31
0
0
LINE
8
OBJECT
10
-291.2
20
-42
30
0
11
-295.2
21
-35
31
0
0
LINE
8
OBJECT
10
-295.2
20
-35
30
0
11
-436.8
21
-35
31
0
0
LINE
8
OBJECT
10
-436.8
20
-35
30
0
11
-439.8
21
-27.3
31
0
0
LINE
8
OBJECT
10
-439.8
20
-27.3
30
0
11
-517
21
-27.3
31
0
0
LINE
8
OBJECT
10
-517
20
-27.3
30
0
11
-520
21
-24.15
31
0
0
LINE
8
OBJECT
10
-520
20
-24.15
30
0
11
-520
21
0
31
0
0
LINE
8
OBJECT
10
0
20
0
30
0
11
0
21
46.2
31
0
0
LINE
8
OBJECT
10
0
20
46.2
30
0
11
-4
21
49.7
31
0
0
LINE
8
OBJECT
10
-4
20
49.7
30
0
11
-34
21
49.7
31
0
0
LINE
8
OBJECT
10
-34
20
49.7
30
0
11
-39
21
42
31
0
0
LINE
8
OBJECT
10
-39
20
42
30
0
11
-291.2
21
42
31
0
0
LINE
8
OBJECT
10
-291.2
20
42
30
0
11
-295.2
21
35
31
0
0
LINE
8
OBJECT
10
-295.2
20
35
30
0
11
-436.8
21
35
31
0
0
LINE
8
OBJECT
10
-436.8
20
35
30
0
11
-439.8
21
27.3
31
0
0
LINE
8
OBJECT
10
-439.8
20
27.3
30
0
11
-517
21
27.3
31
0
0
LINE
8
OBJECT
10
-517
20
27.3
30
0
11
-520
21
24.15
31
0
0
LINE
8
OBJECT
10
-520
20
24.15
30
0
11
-520
21
0
31
0
0
LINE
8
OBJECT
10
0
20
0
30
0
11
0
21
-46.2
31
0
0
LINE
8
OBJECT
10
0
20
-46.2
30
0
11
4
21
-49.7
31
0
0
LINE
8
OBJECT
10
4
20
-49.7
30
0
11
34
21
-49.7
31
0
0
LINE
8
OBJECT
10
34
20
-49.7
30
0
11
39
21
-42
31
0
0
LINE
8
OBJECT
10
39
20
-42
30
0
11
179.2
21
-42
31
0
0
LINE
8
OBJECT
10
179.2
20
-42
30
0
11
183.2
21
-35
31
0
0
LINE
8
OBJECT
10
183.2
20
-35
30
0
11
268.8
21
-35
31
0
0
LINE
8
OBJECT
10
268.8
20
-35
30
0
11
271.8
21
-27.3
31
0
0
LINE
8
OBJECT
10
271.8
20
-27.3
30
0
11
317
21
-27.3
31
0
0
LINE
8
OBJECT
10
317
20
-27.3
30
0
11
320
21
-24.15
31
0
0
LINE
8
OBJECT
10
320
20
-24.15
30
0
11
320
21
0
31
0
0
LINE
8
OBJECT
10
0
20
0
30
0
11
0
21
46.2
31
0
0
LINE
8
OBJECT
10
0
20
46.2
30
0
11
4
21
49.7
31
0
0
LINE
8
OBJECT
10
4
20
49.7
30
0
11
34
21
49.7
31
0
0
LINE
8
OBJECT
10
34
20
49.7
30
0
11
39
21
42
31
0
0
LINE
8
OBJECT
10
39
20
42
30
0
11
179.2
21
42
31
0
0
LINE
8
OBJECT
10
179.2
20
42
30
0
11
183.2
21
35
31
0
0
LINE
8
OBJECT
10
183.2
20
35
30
0
11
268.8
21
35
31
0
0
LINE
8
OBJECT
10
268.8
20
35
30
0
11
271.8
21
27.3
31
0
0
LINE
8
OBJECT
10
271.8
20
27.3
30
0
11
317
21
27.3
31
0
0
LINE
8
OBJECT
10
317
20
27.3
30
0
11
320
21
24.15
31
0
0
LINE
8
OBJECT
10
320
20
24.15
30
0
11
320
21
0
31
0
0
LINE
8
DIM
10
-520
20
-170
30
0
11
-520
21
-115
31
0
0
LINE
8
DIM
10
0
20
-170
30
0
11
0
21
-115
31
0
0
LINE
8
DIM
10
-520
20
-140
30
0
11
0
21
-140
31
0
0
LINE
8
DIM
10
-520
20
-140
30
0
11
-508
21
-146
31
0
0
LINE
8
DIM
10
-520
20
-140
30
0
11
-508
21
-134
31
0
0
LINE
8
DIM
10
0
20
-140
30
0
11
-12
21
-146
31
0
0
LINE
8
DIM
10
0
20
-140
30
0
11
-12
21
-134
31
0
0
TEXT
8
DIM
10
-260
20
-126
30
0
40
22
1
좌측 돌출 520
0
LINE
8
DIM
10
0
20
-170
30
0
11
0
21
-115
31
0
0
LINE
8
DIM
10
320
20
-170
30
0
11
320
21
-115
31
0
0
LINE
8
DIM
10
0
20
-140
30
0
11
320
21
-140
31
0
0
LINE
8
DIM
10
0
20
-140
30
0
11
12
21
-146
31
0
0
LINE
8
DIM
10
0
20
-140
30
0
11
12
21
-134
31
0
0
LINE
8
DIM
10
320
20
-140
30
0
11
308
21
-146
31
0
0
LINE
8
DIM
10
320
20
-140
30
0
11
308
21
-134
31
0
0
TEXT
8
DIM
10
160
20
-126
30
0
40
22
1
우측 돌출 320
0
TEXT
8
TEXT
10
0
20
90
30
0
40
22
1
좌·우 축 프로파일 · 접합부 규격 미확정
0
CIRCLE
8
OBJECT
10
0
20
420
30
0
40
110
0
CIRCLE
8
OBJECT
10
0
20
420
30
0
40
98
0
CIRCLE
8
OBJECT
10
0
20
420
30
0
40
82
0
TEXT
8
TEXT
10
0
20
580
30
0
40
22
1
외경 Ø220 / 심관 외경 Ø196
0
TEXT
8
TEXT
10
0
20
620
30
0
40
22
1
표면층 12 / 심관 두께 16 (가정)
0
ENDSEC
0
EOF
