0
SECTION
2
HEADER
9
$ACADVER
1
AC1021
9
$INSUNITS
70
4
0
ENDSEC
0
SECTION
2
ENTITIES
0
LINE
8
OBJECT
10
-240
20
-14
30
0
11
240
21
-14
31
0
0
LINE
8
OBJECT
10
240
20
-14
30
0
11
240
21
0
31
0
0
LINE
8
OBJECT
10
240
20
0
30
0
11
-240
21
0
31
0
0
LINE
8
OBJECT
10
-240
20
0
30
0
11
-240
21
-14
31
0
0
LINE
8
OBJECT
10
-19
20
0
30
0
11
19
21
0
31
0
0
LINE
8
OBJECT
10
19
20
0
30
0
11
19
21
1285
31
0
0
LINE
8
OBJECT
10
19
20
1285
30
0
11
-19
21
1285
31
0
0
LINE
8
OBJECT
10
-19
20
1285
30
0
11
-19
21
0
31
0
0
LINE
8
OBJECT
10
0
20
1285
30
0
11
0
21
1380
31
0
0
LINE
8
OBJECT
10
0
20
1380
30
0
11
30
21
1430
31
0
0
LINE
8
OBJECT
10
30
20
1430
30
0
11
84
21
1432
31
0
0
CIRCLE
8
OBJECT
10
84
20
1432
30
0
40
34
0
LINE
8
OBJECT
10
112
20
1415
30
0
11
472.8
21
1164.2
31
0
0
LINE
8
OBJECT
10
112
20
1445
30
0
11
472.8
21
1194.2
31
0
0
LINE
8
OBJECT
10
425.8
20
1117.2
30
0
11
520.8
21
1117.2
31
0
0
LINE
8
OBJECT
10
520.8
20
1117.2
30
0
11
520.8
21
1212.2
31
0
0
LINE
8
OBJECT
10
520.8
20
1212.2
30
0
11
425.8
21
1212.2
31
0
0
LINE
8
OBJECT
10
425.8
20
1212.2
30
0
11
425.8
21
1117.2
31
0
0
LINE
8
REFERENCE
10
317.8
20
1061.2
30
0
11
627.8
21
1061.2
31
0
0
LINE
8
REFERENCE
10
627.8
20
1061.2
30
0
11
627.8
21
1266.2
31
0
0
LINE
8
REFERENCE
10
627.8
20
1266.2
30
0
11
317.8
21
1266.2
31
0
0
LINE
8
REFERENCE
10
317.8
20
1266.2
30
0
11
317.8
21
1061.2
31
0
0
TEXT
8
TEXT
10
472.8
20
1024.2
30
0
40
24
1
모니터 참고 형상 · 당사 제작 범위 아님
0
LINE
8
DIM
10
-240
20
-140
30
0
11
-240
21
-85
31
0
0
LINE
8
DIM
10
240
20
-140
30
0
11
240
21
-85
31
0
0
LINE
8
DIM
10
-240
20
-110
30
0
11
240
21
-110
31
0
0
LINE
8
DIM
10
-240
20
-110
30
0
11
-228
21
-116
31
0
0
LINE
8
DIM
10
-240
20
-110
30
0
11
-228
21
-104
31
0
0
LINE
8
DIM
10
240
20
-110
30
0
11
228
21
-116
31
0
0
LINE
8
DIM
10
240
20
-110
30
0
11
228
21
-104
31
0
0
TEXT
8
DIM
10
0
20
-96
30
0
40
22
1
베이스 Ø480
0
TEXT
8
TEXT
10
0
20
1640
30
0
40
26
1
높이 가정 1480 / 기둥 Ø38 / 암 440
0
ENDSEC
0
EOF
