0
SECTION
2
HEADER
9
$ACADVER
1
AC1021
9
$INSUNITS
70
4
0
ENDSEC
0
SECTION
2
ENTITIES
0
LINE
8
OBJECT
10
-240
20
-214
30
0
11
240
21
-214
31
0
0
LINE
8
OBJECT
10
240
20
-214
30
0
11
240
21
-200
31
0
0
LINE
8
OBJECT
10
240
20
-200
30
0
11
-240
21
-200
31
0
0
LINE
8
OBJECT
10
-240
20
-200
30
0
11
-240
21
-214
31
0
0
LINE
8
OBJECT
10
-19
20
0
30
0
11
19
21
0
31
0
0
LINE
8
OBJECT
10
19
20
0
30
0
11
19
21
1285
31
0
0
LINE
8
OBJECT
10
19
20
1285
30
0
11
-19
21
1285
31
0
0
LINE
8
OBJECT
10
-19
20
1285
30
0
11
-19
21
0
31
0
0
LINE
8
OBJECT
10
0
20
1485
30
0
11
0
21
1580
31
0
0
LINE
8
OBJECT
10
0
20
1580
30
0
11
30
21
1630
31
0
0
LINE
8
OBJECT
10
30
20
1630
30
0
11
84
21
1632
31
0
0
CIRCLE
8
OBJECT
10
84
20
1632
30
0
40
34
0
LINE
8
OBJECT
10
112
20
1615
30
0
11
472.8
21
1364.2
31
0
0
LINE
8
OBJECT
10
112
20
1645
30
0
11
472.8
21
1394.2
31
0
0
LINE
8
OBJECT
10
625.8
20
1317.2
30
0
11
720.8
21
1317.2
31
0
0
LINE
8
OBJECT
10
720.8
20
1317.2
30
0
11
720.8
21
1412.2
31
0
0
LINE
8
OBJECT
10
720.8
20
1412.2
30
0
11
625.8
21
1412.2
31
0
0
LINE
8
OBJECT
10
625.8
20
1412.2
30
0
11
625.8
21
1317.2
31
0
0
LINE
8
REFERENCE
10
517.8
20
1261.2
30
0
11
827.8
21
1261.2
31
0
0
LINE
8
REFERENCE
10
827.8
20
1261.2
30
0
11
827.8
21
1466.2
31
0
0
LINE
8
REFERENCE
10
827.8
20
1466.2
30
0
11
517.8
21
1466.2
31
0
0
LINE
8
REFERENCE
10
517.8
20
1466.2
30
0
11
517.8
21
1261.2
31
0
0
TEXT
8
TEXT
10
672.8
20
1224.2
30
0
40
24
1
모니터 참고 형상 · 당사 제작 범위 아님
0
LINE
8
DIM
10
-240
20
-340
30
0
11
-240
21
-285
31
0
0
LINE
8
DIM
10
240
20
-340
30
0
11
240
21
-285
31
0
0
LINE
8
DIM
10
-240
20
-310
30
0
11
240
21
-310
31
0
0
LINE
8
DIM
10
-240
20
-310
30
0
11
-228
21
-316
31
0
0
LINE
8
DIM
10
-240
20
-310
30
0
11
-228
21
-304
31
0
0
LINE
8
DIM
10
240
20
-310
30
0
11
228
21
-316
31
0
0
LINE
8
DIM
10
240
20
-310
30
0
11
228
21
-304
31
0
0
TEXT
8
DIM
10
0
20
-296
30
0
40
22
1
베이스 Ø480
0
TEXT
8
TEXT
10
0
20
1840
30
0
40
26
1
높이 가정 1480 / 기둥 Ø38 / 암 440
0
ENDSEC
0
EOF
