<svg xmlns="http://www.w3.org/2000/svg" viewBox="0 0 1200 800" role="img" aria-label="모니터 거치대 주요 부품도"><rect width="1200" height="800" fill="#fbfcfd"/><g font-family="Arial, Malgun Gothic, sans-serif"><rect x="24" y="24" width="1152" height="752" fill="none" stroke="#c6d0d9"/><text x="50" y="64" font-size="23" fill="#203244">승지정밀산업롤 · 모니터 거치대</text><text x="1150" y="63" text-anchor="end" font-size="15" fill="#687b8c">S–01 / 주요 부품도 / TEST2</text><line x1="24" y1="88" x2="1176" y2="88" stroke="#c6d0d9"/><circle cx="438.19585492227975" cy="395.18134715025906" r="167.87564766839378" stroke="#294052" stroke-width="1.4" fill="none"/><circle cx="438.19585492227975" cy="395.18134715025906" r="13.290155440414509" stroke="#294052" stroke-width="1.4" fill="none"/><line x1="242.34093264248702" y1="395.18134715025906" x2="634.0507772020726" y2="395.18134715025906" stroke="#9aabb7" stroke-width="0.9" stroke-dasharray="8 5"/><line x1="270.320207253886" y1="640" x2="270.320207253886" y2="601.5284974093264" stroke="#648297" stroke-width="0.9" /><line x1="606.0715025906736" y1="640" x2="606.0715025906736" y2="601.5284974093264" stroke="#648297" stroke-width="0.9" /><line x1="270.320207253886" y1="619.0155440414508" x2="606.0715025906736" y2="619.0155440414508" stroke="#648297" stroke-width="0.9" /><line x1="270.320207253886" y1="619.0155440414508" x2="278.7139896373057" y2="623.2124352331607" stroke="#648297" stroke-width="0.9" /><line x1="270.320207253886" y1="619.0155440414508" x2="278.7139896373057" y2="614.8186528497409" stroke="#648297" stroke-width="0.9" /><line x1="606.0715025906736" y1="619.0155440414508" x2="597.6777202072539" y2="623.2124352331607" stroke="#648297" stroke-width="0.9" /><line x1="606.0715025906736" y1="619.0155440414508" x2="597.6777202072539" y2="614.8186528497409" stroke="#648297" stroke-width="0.9" /><text x="438.19585492227975" y="609.2227979274612" text-anchor="middle" fill="#648297" font-size="15.388601036269431">베이스 Ø480</text><text x="438.19585492227975" y="185.33678756476684" text-anchor="middle" fill="#294052" font-size="16.78756476683938">원형 베이스 평면</text><circle cx="878.8694300518134" cy="395.18134715025906" r="23.782383419689122" stroke="#294052" stroke-width="1.4" fill="none"/><circle cx="878.8694300518134" cy="395.18134715025906" r="9.792746113989638" stroke="#294052" stroke-width="1.4" fill="none"/><circle cx="896.3564766839379" cy="395.18134715025906" r="2.0984455958549226" stroke="#294052" stroke-width="1.4" fill="none"/><circle cx="870.1259067357513" cy="380.03712052967626" r="2.0984455958549226" stroke="#294052" stroke-width="1.4" fill="none"/><circle cx="870.1259067357513" cy="410.32557377084186" r="2.0984455958549226" stroke="#294052" stroke-width="1.4" fill="none"/><text x="878.8694300518134" y="325.23316062176167" text-anchor="middle" fill="#294052" font-size="16.78756476683938">상부 관절 덮개 · 가정</text><line x1="845.6440414507772" y1="213.3160621761658" x2="912.0948186528498" y2="213.3160621761658" stroke="#294052" stroke-width="1.6" /><line x1="912.0948186528498" y1="213.3160621761658" x2="912.0948186528498" y2="146.86528497409324" stroke="#294052" stroke-width="1.6" /><line x1="912.0948186528498" y1="146.86528497409324" x2="845.6440414507772" y2="146.86528497409324" stroke="#294052" stroke-width="1.6" /><line x1="845.6440414507772" y1="146.86528497409324" x2="845.6440414507772" y2="213.3160621761658" stroke="#294052" stroke-width="1.6" /><circle cx="854.3875647668394" cy="204.5725388601036" r="2.7979274611398965" stroke="#294052" stroke-width="1.4" fill="none"/><circle cx="854.3875647668394" cy="155.60880829015542" r="2.7979274611398965" stroke="#294052" stroke-width="1.4" fill="none"/><circle cx="903.3512953367876" cy="204.5725388601036" r="2.7979274611398965" stroke="#294052" stroke-width="1.4" fill="none"/><circle cx="903.3512953367876" cy="155.60880829015542" r="2.7979274611398965" stroke="#294052" stroke-width="1.4" fill="none"/><text x="878.8694300518134" y="115.38860103626942" text-anchor="middle" fill="#294052" font-size="15.388601036269431">장착판 홀 간격 70 (가정)</text><line x1="24" y1="679" x2="1176" y2="679" stroke="#c6d0d9"/><text x="50" y="711" font-size="15" fill="#203244">베이스 평면과 관절·장착판의 설명용 부품도</text><text x="50" y="739" font-size="14" fill="#687b8c">사진의 비례를 기준으로 만든 검토용 모델입니다. 표기 치수는 가정값이며 제작용 확정 도면이 아닙니다.</text><text x="1150" y="761" text-anchor="end" font-size="12" fill="#687b8c">단위 mm · 화면 맞춤 축척 · REV A · 기준 비율 1</text></g></svg>