0
SECTION
2
HEADER
9
$ACADVER
1
AC1021
9
$INSUNITS
70
4
0
ENDSEC
0
SECTION
2
ENTITIES
0
CIRCLE
8
OBJECT
10
0
20
0
30
0
40
240
0
CIRCLE
8
OBJECT
10
0
20
0
30
0
40
19
0
LINE
8
CENTER
10
-280
20
0
30
0
11
280
21
0
31
0
0
LINE
8
DIM
10
-240
20
-350
30
0
11
-240
21
-295
31
0
0
LINE
8
DIM
10
240
20
-350
30
0
11
240
21
-295
31
0
0
LINE
8
DIM
10
-240
20
-320
30
0
11
240
21
-320
31
0
0
LINE
8
DIM
10
-240
20
-320
30
0
11
-228
21
-326
31
0
0
LINE
8
DIM
10
-240
20
-320
30
0
11
-228
21
-314
31
0
0
LINE
8
DIM
10
240
20
-320
30
0
11
228
21
-326
31
0
0
LINE
8
DIM
10
240
20
-320
30
0
11
228
21
-314
31
0
0
TEXT
8
DIM
10
0
20
-306
30
0
40
22
1
베이스 Ø480
0
TEXT
8
TEXT
10
0
20
300
30
0
40
24
1
원형 베이스 평면
0
CIRCLE
8
OBJECT
10
630
20
0
30
0
40
34
0
CIRCLE
8
OBJECT
10
630
20
0
30
0
40
14
0
CIRCLE
8
OBJECT
10
655
20
0
30
0
40
3
0
CIRCLE
8
OBJECT
10
617.5
20
21.6506
30
0
40
3
0
CIRCLE
8
OBJECT
10
617.5
20
-21.6506
30
0
40
3
0
TEXT
8
TEXT
10
630
20
100
30
0
40
24
1
상부 관절 덮개 · 가정
0
LINE
8
OBJECT
10
582.5
20
260
30
0
11
677.5
21
260
31
0
0
LINE
8
OBJECT
10
677.5
20
260
30
0
11
677.5
21
355
31
0
0
LINE
8
OBJECT
10
677.5
20
355
30
0
11
582.5
21
355
31
0
0
LINE
8
OBJECT
10
582.5
20
355
30
0
11
582.5
21
260
31
0
0
CIRCLE
8
OBJECT
10
595
20
272.5
30
0
40
4
0
CIRCLE
8
OBJECT
10
595
20
342.5
30
0
40
4
0
CIRCLE
8
OBJECT
10
665
20
272.5
30
0
40
4
0
CIRCLE
8
OBJECT
10
665
20
342.5
30
0
40
4
0
TEXT
8
TEXT
10
630
20
400
30
0
40
22
1
장착판 홀 간격 70 (가정)
0
ENDSEC
0
EOF
